<?xml version="1.0" standalone="no"?>
<!DOCTYPE svg PUBLIC "-//W3C//DTD SVG 20010904//EN"
 "http://www.w3.org/TR/2001/REC-SVG-20010904/DTD/svg10.dtd">
<svg version="1.0" xmlns="http://www.w3.org/2000/svg"
 width="225.000000pt" height="225.000000pt" viewBox="0 0 225.000000 225.000000"
 preserveAspectRatio="xMidYMid meet">
<metadata>
Created by potrace 1.16, written by Peter Selinger 2001-2019
</metadata>
<g transform="translate(0.000000,225.000000) scale(0.100000,-0.100000)"
fill="black" stroke="black">
<path d="M1010 1994 c-126 -26 -232 -68 -328 -131 l-52 -35 -50 46 c-60 56
-125 86 -187 86 -50 0 -106 -28 -124 -62 -9 -16 -18 -19 -44 -15 -19 3 -35 2
-37 -3 -2 -5 -15 -10 -30 -12 -15 -2 -30 -7 -34 -10 -3 -4 -13 -4 -22 -1 -10
4 -13 2 -8 -5 4 -7 3 -12 -3 -12 -5 0 -20 -14 -32 -31 -18 -26 -22 -43 -20
-103 1 -79 37 -234 65 -309 23 -52 85 -127 104 -127 32 -1 36 -15 21 -74 -24
-92 -38 -244 -30 -343 15 -220 97 -371 256 -472 31 -20 54 -41 52 -47 -2 -6 4
-17 12 -24 14 -11 18 -11 25 -1 8 15 85 6 96 -10 3 -5 18 -9 35 -9 16 0 29 -3
29 -7 0 -5 17 -9 38 -10 20 -1 51 -4 67 -6 17 -2 54 -5 83 -6 29 0 51 -5 48
-10 -4 -5 51 -7 134 -4 80 4 140 2 140 -3 0 -5 29 -7 65 -6 36 2 65 7 65 12 0
8 79 18 173 22 20 1 37 6 37 10 0 4 13 8 28 8 15 0 33 5 39 11 5 5 35 13 66
16 41 4 57 10 60 23 3 10 20 25 40 35 71 34 154 121 197 208 39 80 70 199 70
273 0 21 4 33 10 29 6 -4 10 12 10 42 0 35 -3 44 -10 33 -7 -11 -10 -3 -10 30
0 40 -15 139 -36 237 -6 29 -4 33 29 47 48 20 98 99 132 206 31 100 50 234 41
284 -11 60 -67 98 -163 111 -32 5 -58 17 -78 35 -43 40 -68 50 -119 50 -62 0
-127 -31 -182 -86 -43 -43 -49 -46 -68 -33 -103 65 -156 92 -237 119 -82 28
-110 32 -219 35 -69 2 -136 1 -150 -1z m286 -49 c34 -8 85 -23 114 -34 52 -20
186 -96 196 -112 2 -5 -7 -26 -22 -48 -24 -37 -26 -61 -4 -61 5 0 30 29 55 64
97 136 198 196 276 163 52 -22 66 -45 72 -118 8 -88 27 -159 44 -166 24 -9 25
3 9 76 -9 38 -16 84 -16 100 0 28 3 31 33 31 42 -1 113 -33 126 -58 38 -71
-27 -354 -101 -438 -37 -42 -58 -48 -100 -31 -101 42 -188 178 -206 323 -5 44
-11 60 -25 62 -22 4 -22 -27 -2 -121 25 -119 117 -255 196 -287 31 -13 47 -52
70 -173 18 -96 15 -310 -5 -387 -52 -202 -193 -338 -411 -395 -161 -43 -498
-58 -727 -34 -434 45 -628 239 -628 627 0 102 18 235 41 309 7 21 24 40 53 57
106 62 188 210 198 356 2 36 0 45 -14 48 -14 3 -18 -3 -18 -23 0 -41 -29 -143
-56 -202 -29 -61 -129 -158 -174 -168 -40 -9 -71 12 -104 67 -37 63 -74 188
-87 289 -10 78 -10 92 5 114 25 38 60 57 113 58 l48 2 -3 -50 c-2 -27 -10 -72
-17 -98 -12 -42 -12 -49 1 -54 8 -3 17 -3 21 0 11 11 33 123 33 169 0 35 6 54
25 77 71 84 184 52 292 -82 28 -34 55 -72 62 -84 12 -23 35 -30 45 -14 3 5 -5
25 -19 45 -14 20 -25 42 -25 49 0 7 24 27 53 44 193 117 387 153 583 108z"/>
<path d="M613 1086 c-62 -28 -89 -106 -59 -165 35 -66 131 -83 187 -33 36 32
49 100 27 141 -30 56 -100 81 -155 57z"/>
<path d="M1553 1084 c-60 -30 -86 -99 -57 -159 20 -43 59 -65 115 -65 33 0 47
6 75 34 28 28 34 42 34 75 0 60 -22 96 -70 115 -49 20 -57 20 -97 0z"/>
<path d="M1063 1070 c-87 -18 -154 -64 -193 -133 -24 -42 -30 -64 -30 -113 0
-55 3 -64 36 -102 48 -57 114 -76 254 -76 233 0 329 80 289 240 -32 125 -206
215 -356 184z m204 -68 c83 -43 133 -139 112 -215 -8 -28 -21 -43 -57 -64 -43
-25 -58 -28 -163 -32 -189 -5 -266 29 -276 122 -9 76 59 170 148 204 52 20
185 11 236 -15z"/>
<path d="M979 951 c-26 -26 -29 -36 -29 -91 0 -68 19 -115 50 -125 67 -21 116
111 72 194 -27 51 -57 58 -93 22z"/>
<path d="M1207 968 c-28 -15 -47 -64 -47 -122 0 -44 5 -60 26 -85 31 -37 44
-38 79 -8 35 30 46 117 21 169 -19 40 -54 61 -79 46z"/>
</g>
</svg>
