<svg id="svg" xmlns="http://www.w3.org/2000/svg" xmlns:xlink="http://www.w3.org/1999/xlink" width="400" height="257.20486111111114" viewBox="0, 0, 400,257.20486111111114" version="1.1"><g id="svgg"><path id="path0" d="M263.571 113.793 C 263.664 114.088,263.557 114.160,262.250 114.684 C 261.975 114.794,260.887 114.895,259.833 114.907 C 258.262 114.926,257.832 114.986,257.444 115.243 C 257.042 115.511,256.892 115.528,256.432 115.362 C 254.796 114.770,251.438 115.394,249.645 116.622 C 249.244 116.897,248.579 117.291,248.167 117.500 C 247.754 117.708,247.379 117.933,247.333 118.000 C 247.077 118.376,245.225 119.022,244.673 118.928 C 242.816 118.612,241.143 118.622,240.694 118.951 C 240.170 119.336,239.222 119.558,239.080 119.328 C 239.025 119.239,238.807 119.167,238.596 119.167 C 238.385 119.167,238.009 119.008,237.762 118.813 C 237.057 118.258,235.818 118.484,234.893 119.337 L 234.189 119.987 233.082 119.410 C 232.474 119.093,231.798 118.833,231.581 118.833 C 231.364 118.833,231.144 118.764,231.091 118.679 C 231.039 118.595,230.772 118.476,230.498 118.416 C 230.224 118.356,230.000 118.253,230.000 118.187 C 230.000 117.697,228.788 118.273,228.253 119.018 C 227.931 119.466,227.564 119.833,227.437 119.833 C 227.311 119.833,227.114 119.946,227.000 120.083 C 226.886 120.221,226.532 120.333,226.214 120.333 C 225.895 120.333,225.411 120.465,225.138 120.625 C 224.662 120.905,224.633 120.904,224.414 120.606 C 223.759 119.714,222.948 119.655,221.940 120.424 L 221.166 121.015 220.458 120.466 C 220.069 120.164,219.421 119.635,219.018 119.292 C 218.122 118.526,217.277 118.457,216.150 119.056 C 215.718 119.286,214.988 119.485,214.374 119.541 C 213.636 119.608,212.979 119.814,212.124 120.249 L 210.917 120.863 209.301 120.747 L 207.686 120.632 207.379 121.274 C 207.188 121.674,206.972 121.900,206.809 121.873 C 206.612 121.840,206.565 121.933,206.623 122.237 C 206.666 122.461,206.581 122.816,206.434 123.026 C 206.287 123.236,206.167 123.543,206.167 123.710 C 206.167 124.246,205.658 124.867,205.396 124.649 C 205.248 124.527,205.167 124.521,205.167 124.632 C 205.167 124.728,205.252 124.834,205.355 124.868 C 205.618 124.956,205.386 125.611,205.046 125.741 C 204.722 125.866,203.572 124.658,203.392 124.005 C 203.274 123.576,202.718 123.015,202.401 123.006 C 202.110 122.997,201.667 122.422,201.667 122.054 C 201.667 121.706,201.189 121.167,200.882 121.167 C 200.785 121.167,200.515 120.916,200.281 120.610 L 199.857 120.053 196.901 119.951 C 194.039 119.853,193.929 119.861,193.433 120.216 C 192.748 120.708,192.177 121.000,191.903 121.000 C 191.780 121.000,191.599 121.148,191.503 121.329 C 191.328 121.656,191.324 121.656,190.742 121.329 C 189.582 120.677,186.859 121.042,185.850 121.984 C 184.919 122.854,184.580 123.013,184.228 122.746 C 183.741 122.378,181.404 122.413,181.078 122.795 C 180.852 123.059,180.494 123.087,177.643 123.071 C 174.544 123.053,173.956 123.126,173.042 123.636 C 172.756 123.795,172.582 123.800,172.311 123.655 C 172.116 123.550,171.216 123.455,170.311 123.442 C 169.407 123.430,168.667 123.362,168.667 123.293 C 168.667 123.224,168.592 123.167,168.500 123.167 C 168.408 123.167,168.333 123.266,168.333 123.389 C 168.333 123.914,167.517 124.076,164.981 124.055 C 163.615 124.044,162.457 124.102,162.406 124.184 C 162.355 124.266,162.108 124.333,161.857 124.333 C 161.606 124.333,161.329 124.403,161.242 124.487 C 161.155 124.572,160.521 124.677,159.833 124.721 C 158.078 124.833,157.517 124.978,156.720 125.523 C 155.860 126.112,155.441 126.123,154.892 125.573 L 154.465 125.147 151.691 125.323 C 145.236 125.735,143.906 125.857,143.588 126.067 C 143.301 126.257,143.165 126.217,142.504 125.753 C 141.531 125.069,138.203 124.796,136.822 125.286 C 136.075 125.552,136.037 125.549,135.542 125.197 C 135.261 124.997,134.922 124.833,134.788 124.833 C 134.655 124.833,134.354 124.683,134.121 124.500 C 133.888 124.317,133.502 124.167,133.263 124.167 C 132.819 124.167,132.394 123.975,131.687 123.458 C 131.442 123.279,130.988 123.167,130.511 123.167 C 130.083 123.167,129.662 123.101,129.575 123.020 C 129.488 122.940,129.117 122.779,128.750 122.663 C 128.383 122.547,128.030 122.369,127.964 122.268 C 127.892 122.155,127.255 122.083,126.339 122.083 C 125.511 122.083,124.833 122.027,124.833 121.958 C 124.833 121.890,124.765 121.833,124.682 121.833 C 124.599 121.833,124.570 121.983,124.618 122.167 C 124.694 122.457,124.623 122.500,124.061 122.502 C 123.707 122.504,122.929 122.621,122.333 122.763 C 121.737 122.905,120.688 123.040,120.000 123.062 C 119.313 123.085,118.112 123.230,117.333 123.385 C 116.554 123.540,115.392 123.668,114.750 123.670 C 113.555 123.675,112.921 123.792,111.750 124.223 C 110.267 124.769,109.671 124.742,108.667 124.082 C 108.162 123.751,107.525 123.369,107.250 123.234 C 106.226 122.730,105.747 122.444,105.631 122.266 C 105.560 122.158,104.879 122.075,103.964 122.062 C 103.113 122.051,101.592 121.920,100.583 121.770 C 96.463 121.160,95.475 120.988,95.203 120.832 C 94.316 120.326,93.338 120.103,92.083 120.121 C 85.273 120.218,84.896 120.180,83.786 119.270 C 83.118 118.723,82.954 118.667,82.034 118.667 C 81.476 118.667,80.973 118.592,80.917 118.500 C 80.507 117.837,78.242 118.568,77.000 119.763 C 75.941 120.782,75.314 121.018,74.829 120.580 C 74.382 120.175,72.895 120.337,72.552 120.828 C 72.195 121.337,71.995 121.257,70.917 120.167 C 70.372 119.617,69.865 119.167,69.790 119.167 C 69.715 119.167,69.449 119.015,69.199 118.831 C 68.904 118.613,68.356 118.458,67.643 118.392 L 66.541 118.289 65.793 118.978 C 65.382 119.357,64.928 119.667,64.783 119.667 C 64.638 119.667,64.473 119.742,64.417 119.833 C 64.360 119.925,64.187 120.000,64.032 120.001 C 63.877 120.002,63.537 120.113,63.277 120.249 C 62.769 120.514,62.497 120.438,61.686 119.808 C 61.258 119.476,60.664 119.405,60.408 119.655 C 60.311 119.750,59.705 119.747,58.833 119.648 C 57.187 119.461,56.925 119.506,55.964 120.145 C 55.571 120.406,55.034 120.672,54.771 120.735 C 54.507 120.798,53.952 121.109,53.538 121.425 C 52.197 122.449,51.263 122.259,48.962 120.493 C 47.379 119.277,44.000 120.677,44.000 122.548 C 44.000 123.029,43.982 123.040,43.375 122.932 C 41.845 122.659,41.020 122.634,40.399 122.843 C 40.014 122.972,39.136 123.046,38.241 123.025 C 37.194 123.000,36.545 123.068,36.121 123.245 C 35.786 123.385,35.473 123.500,35.428 123.500 C 35.257 123.500,34.167 122.459,34.167 122.295 C 34.167 121.309,31.688 120.040,30.218 120.273 C 28.852 120.490,25.043 120.377,21.667 120.019 C 20.704 119.916,19.720 119.874,19.479 119.925 C 18.876 120.052,15.274 119.536,14.710 119.242 C 14.457 119.110,14.099 119.002,13.914 119.001 C 13.729 119.000,13.301 118.813,12.964 118.583 C 12.562 118.310,12.121 118.167,11.683 118.167 C 11.193 118.167,10.904 118.056,10.598 117.750 C 10.161 117.312,8.804 117.144,8.583 117.500 C 8.527 117.592,8.188 117.667,7.832 117.667 C 7.475 117.667,7.123 117.761,7.050 117.875 C 6.598 118.583,3.190 118.631,2.800 117.935 C 2.626 117.624,1.167 117.547,1.167 117.848 C 1.167 118.077,0.486 118.654,0.208 118.661 C 0.042 118.666,0.000 132.623,0.000 187.876 L 0.000 257.086 200.000 257.127 L 400.000 257.169 400.000 191.668 L 400.000 126.167 399.270 126.167 C 398.703 126.167,398.482 126.250,398.277 126.542 L 398.013 126.917 397.715 126.576 C 396.948 125.698,395.993 125.255,394.777 125.212 C 394.131 125.189,393.528 125.094,393.435 125.002 C 393.078 124.645,388.621 125.122,387.881 125.597 C 387.296 125.972,385.189 125.908,384.667 125.500 C 384.438 125.321,384.046 125.172,383.797 125.170 C 383.378 125.167,382.552 124.876,381.750 124.448 C 381.567 124.351,380.760 124.238,379.958 124.198 C 379.156 124.159,378.500 124.060,378.500 123.980 C 378.500 123.899,378.379 123.833,378.232 123.833 C 378.073 123.833,378.000 123.927,378.052 124.063 C 378.164 124.353,377.862 124.667,377.576 124.558 C 377.444 124.507,377.338 124.626,377.305 124.862 C 377.268 125.124,377.155 125.234,376.958 125.201 C 376.765 125.169,376.667 125.260,376.667 125.472 C 376.667 125.938,376.244 126.222,375.739 126.095 C 375.378 126.005,375.321 126.036,375.392 126.285 C 375.530 126.769,373.802 127.525,372.864 127.390 C 372.285 127.307,372.051 127.356,371.663 127.643 C 371.397 127.839,371.117 128.000,371.040 128.000 C 370.963 128.000,370.815 128.085,370.712 128.188 C 370.433 128.467,368.875 129.004,367.884 129.163 C 367.383 129.244,366.781 129.484,366.452 129.734 C 365.950 130.117,365.731 130.167,364.537 130.167 C 363.795 130.167,362.996 130.240,362.761 130.329 C 362.483 130.435,362.333 130.435,362.333 130.329 C 362.333 130.240,362.243 130.167,362.133 130.167 C 361.978 130.167,361.978 130.211,362.133 130.367 C 362.441 130.674,362.385 130.759,361.671 131.081 C 360.971 131.397,358.939 131.337,358.592 130.991 C 358.505 130.904,358.344 130.833,358.234 130.833 C 358.125 130.833,357.807 130.620,357.528 130.359 C 356.995 129.861,353.470 129.481,352.039 129.767 C 351.209 129.933,350.366 129.694,349.698 129.104 C 349.360 128.805,348.746 128.390,348.333 128.181 C 347.241 127.630,345.833 126.675,345.833 126.486 C 345.833 126.396,345.702 126.273,345.542 126.212 C 345.381 126.152,344.725 125.738,344.083 125.292 C 342.312 124.063,341.663 123.651,340.838 123.236 C 340.423 123.027,339.933 122.719,339.750 122.551 C 339.386 122.220,338.628 121.703,338.048 121.391 C 337.480 121.086,336.615 120.635,336.293 120.476 C 336.133 120.397,335.308 119.974,334.460 119.537 C 333.611 119.099,332.602 118.608,332.217 118.446 C 331.833 118.283,331.272 117.921,330.971 117.640 C 330.413 117.118,329.158 117.042,328.373 117.481 C 328.235 117.558,327.814 117.550,327.436 117.464 C 327.059 117.377,326.300 117.351,325.750 117.405 C 324.160 117.563,323.989 117.531,323.266 116.939 C 321.342 115.362,320.786 115.303,319.828 116.570 C 319.080 117.562,318.621 117.740,317.066 117.645 C 316.405 117.604,316.273 117.646,316.234 117.908 C 316.091 118.881,314.573 118.986,314.213 118.047 C 314.168 117.929,313.912 117.833,313.644 117.833 C 313.042 117.833,311.145 117.217,310.915 116.948 C 310.173 116.077,309.098 115.796,308.231 116.246 C 307.924 116.405,307.701 116.434,307.596 116.329 C 307.340 116.073,307.167 116.138,307.167 116.491 C 307.167 116.669,307.000 116.931,306.796 117.074 C 306.400 117.351,305.249 117.438,305.410 117.178 C 305.462 117.093,305.438 116.981,305.355 116.930 C 305.272 116.879,305.166 116.986,305.118 117.169 C 305.036 117.480,304.145 117.638,303.196 117.510 C 303.069 117.492,302.997 117.607,303.025 117.782 C 303.097 118.216,302.869 118.500,302.448 118.501 C 302.248 118.501,301.731 118.680,301.299 118.899 C 300.868 119.118,300.487 119.249,300.452 119.190 C 300.417 119.131,300.416 119.189,300.449 119.319 C 300.519 119.588,299.708 120.500,299.398 120.500 C 299.285 120.500,298.972 120.685,298.703 120.912 C 298.195 121.339,297.433 121.707,297.000 121.734 C 296.862 121.743,296.772 121.854,296.799 121.981 C 296.919 122.542,295.578 123.458,295.036 123.185 C 294.879 123.106,294.319 122.907,293.792 122.744 C 293.265 122.580,292.833 122.383,292.833 122.306 C 292.833 122.229,292.675 122.167,292.482 122.167 C 292.289 122.167,291.670 121.948,291.107 121.680 C 289.809 121.064,288.251 120.541,287.313 120.406 C 286.912 120.349,286.058 120.114,285.417 119.885 C 284.775 119.655,284.025 119.405,283.750 119.328 C 283.475 119.252,282.912 119.065,282.500 118.914 C 282.087 118.762,281.523 118.674,281.246 118.719 C 280.839 118.785,280.606 118.681,280.033 118.177 C 278.541 116.867,276.771 116.198,273.833 115.835 C 272.384 115.656,271.538 115.466,270.527 115.092 C 270.129 114.945,269.379 114.757,268.860 114.673 C 267.750 114.496,266.535 114.187,266.127 113.980 C 265.968 113.900,265.345 113.833,264.742 113.833 C 264.055 113.833,263.685 113.771,263.750 113.667 C 263.807 113.575,263.769 113.500,263.665 113.500 C 263.562 113.500,263.519 113.632,263.571 113.793 " stroke="none" fill="#ff9e44" fill-rule="evenodd"></path><path id="path1" d="M11.208 118.119 C 11.460 118.158,11.873 118.158,12.125 118.119 C 12.377 118.081,12.171 118.050,11.667 118.050 C 11.162 118.050,10.956 118.081,11.208 118.119 M229.042 118.115 C 229.202 118.157,229.465 118.157,229.625 118.115 C 229.785 118.073,229.654 118.039,229.333 118.039 C 229.012 118.039,228.881 118.073,229.042 118.115 M8.042 257.115 C 8.202 257.157,8.465 257.157,8.625 257.115 C 8.785 257.073,8.654 257.039,8.333 257.039 C 8.012 257.039,7.881 257.073,8.042 257.115 M12.288 257.120 C 12.584 257.157,13.109 257.158,13.455 257.122 C 13.800 257.086,13.558 257.055,12.917 257.055 C 12.275 257.054,11.992 257.083,12.288 257.120 M14.958 257.123 C 15.440 257.157,16.227 257.157,16.708 257.123 C 17.190 257.089,16.796 257.062,15.833 257.062 C 14.871 257.062,14.477 257.089,14.958 257.123 M17.875 257.115 C 18.035 257.157,18.298 257.157,18.458 257.115 C 18.619 257.073,18.487 257.039,18.167 257.039 C 17.846 257.039,17.715 257.073,17.875 257.115 M24.292 257.118 C 24.498 257.157,24.835 257.157,25.042 257.118 C 25.248 257.078,25.079 257.045,24.667 257.045 C 24.254 257.045,24.085 257.078,24.292 257.118 M26.542 257.124 C 27.160 257.156,28.173 257.156,28.792 257.124 C 29.410 257.092,28.904 257.065,27.667 257.065 C 26.429 257.065,25.923 257.092,26.542 257.124 M31.625 257.121 C 31.923 257.158,32.410 257.158,32.708 257.121 C 33.006 257.084,32.762 257.053,32.167 257.053 C 31.571 257.053,31.327 257.084,31.625 257.121 M42.461 257.121 C 42.761 257.158,43.211 257.157,43.461 257.119 C 43.712 257.081,43.467 257.051,42.917 257.052 C 42.367 257.053,42.162 257.084,42.461 257.121 M44.455 257.120 C 44.750 257.157,45.275 257.158,45.621 257.122 C 45.967 257.086,45.725 257.055,45.083 257.055 C 44.442 257.054,44.159 257.083,44.455 257.120 M55.375 257.119 C 55.627 257.158,56.040 257.158,56.292 257.119 C 56.544 257.081,56.337 257.050,55.833 257.050 C 55.329 257.050,55.123 257.081,55.375 257.119 M63.547 257.123 C 63.985 257.157,64.660 257.157,65.047 257.122 C 65.434 257.087,65.075 257.059,64.250 257.059 C 63.425 257.060,63.109 257.088,63.547 257.123 M69.542 257.115 C 69.702 257.157,69.965 257.157,70.125 257.115 C 70.285 257.073,70.154 257.039,69.833 257.039 C 69.512 257.039,69.381 257.073,69.542 257.115 M73.792 257.121 C 74.090 257.158,74.577 257.158,74.875 257.121 C 75.173 257.084,74.929 257.053,74.333 257.053 C 73.737 257.053,73.494 257.084,73.792 257.121 M83.542 257.115 C 83.702 257.157,83.965 257.157,84.125 257.115 C 84.285 257.073,84.154 257.039,83.833 257.039 C 83.512 257.039,83.381 257.073,83.542 257.115 M84.875 257.119 C 85.127 257.158,85.540 257.158,85.792 257.119 C 86.044 257.081,85.837 257.050,85.333 257.050 C 84.829 257.050,84.623 257.081,84.875 257.119 M92.208 257.115 C 92.369 257.157,92.631 257.157,92.792 257.115 C 92.952 257.073,92.821 257.039,92.500 257.039 C 92.179 257.039,92.048 257.073,92.208 257.115 M120.455 257.120 C 120.750 257.157,121.275 257.158,121.621 257.122 C 121.967 257.086,121.725 257.055,121.083 257.055 C 120.442 257.054,120.159 257.083,120.455 257.120 M122.708 257.115 C 122.869 257.157,123.131 257.157,123.292 257.115 C 123.452 257.073,123.321 257.039,123.000 257.039 C 122.679 257.039,122.548 257.073,122.708 257.115 M153.377 257.120 C 153.631 257.158,154.006 257.157,154.211 257.117 C 154.416 257.078,154.208 257.046,153.750 257.048 C 153.292 257.049,153.124 257.081,153.377 257.120 M188.292 257.121 C 188.590 257.158,189.077 257.158,189.375 257.121 C 189.673 257.084,189.429 257.053,188.833 257.053 C 188.237 257.053,187.994 257.084,188.292 257.121 M260.460 257.118 C 260.668 257.158,260.968 257.156,261.127 257.115 C 261.286 257.073,261.117 257.040,260.750 257.042 C 260.383 257.044,260.253 257.078,260.460 257.118 " stroke="none" fill="#ff9e44" fill-rule="evenodd"></path></g></svg>