<svg id="svg" version="1.1" xmlns="http://www.w3.org/2000/svg" xmlns:xlink="http://www.w3.org/1999/xlink" width="400" height="257.20486111111114" viewBox="0, 0, 400,257.20486111111114"><g id="svgg"><path id="path0" d="M16.917 134.334 C 16.642 134.424,16.323 134.464,16.208 134.421 C 16.094 134.379,16.000 134.416,16.000 134.505 C 16.000 134.594,15.865 134.667,15.700 134.667 C 15.535 134.667,15.321 134.745,15.225 134.842 C 15.129 134.938,14.576 135.037,13.997 135.062 C 13.170 135.098,12.936 135.167,12.905 135.382 C 12.882 135.533,12.914 135.650,12.974 135.642 C 13.034 135.634,13.176 135.636,13.290 135.647 C 13.604 135.677,12.986 136.333,12.644 136.333 C 12.488 136.333,12.268 136.544,12.154 136.801 C 11.984 137.186,11.865 137.256,11.474 137.198 C 11.120 137.146,11.000 137.197,11.000 137.398 C 11.000 137.546,11.094 137.669,11.208 137.672 C 11.331 137.675,11.292 137.772,11.112 137.908 C 10.709 138.213,9.204 138.163,9.002 137.837 C 8.659 137.281,7.647 138.066,7.764 138.798 C 7.871 139.469,7.484 139.833,6.663 139.833 C 6.474 139.833,6.234 140.041,6.081 140.339 C 5.937 140.617,5.745 140.799,5.655 140.743 C 5.565 140.687,5.512 140.738,5.538 140.855 C 5.563 140.972,5.433 141.070,5.250 141.072 C 5.035 141.074,4.925 140.973,4.940 140.788 C 4.953 140.629,4.888 140.500,4.797 140.500 C 4.703 140.500,4.676 140.681,4.735 140.917 C 4.832 141.301,4.795 141.333,4.263 141.333 C 3.697 141.333,3.249 141.666,3.640 141.797 C 3.750 141.833,3.945 141.969,4.074 142.098 C 4.204 142.228,4.409 142.338,4.530 142.344 C 4.849 142.359,4.021 142.669,3.558 142.707 C 3.155 142.740,2.937 143.833,3.333 143.833 C 3.728 143.833,3.454 144.184,2.986 144.278 C 2.703 144.334,2.422 144.501,2.361 144.649 C 2.259 144.896,1.897 145.001,1.108 145.013 C 0.939 145.016,0.699 144.883,0.575 144.717 C 0.366 144.439,0.357 144.444,0.444 144.792 C 0.513 145.065,0.466 145.167,0.269 145.167 C 0.022 145.167,0.000 149.706,0.000 201.189 L 0.000 257.212 0.773 257.106 C 1.199 257.048,91.199 257.000,200.773 257.000 L 400.000 257.000 400.000 209.333 C 400.000 167.074,399.972 161.667,399.750 161.667 C 399.613 161.667,399.500 161.554,399.500 161.417 C 399.500 161.279,399.354 161.167,399.177 161.167 C 398.999 161.167,398.807 161.092,398.750 161.000 C 398.693 160.908,398.464 160.833,398.240 160.833 C 398.016 160.833,397.833 160.776,397.833 160.706 C 397.833 160.636,397.402 160.566,396.875 160.552 C 396.348 160.537,395.579 160.440,395.167 160.335 C 394.754 160.231,393.920 160.115,393.313 160.077 C 392.705 160.039,392.008 159.932,391.763 159.838 C 391.518 159.745,390.813 159.711,390.195 159.762 C 389.203 159.845,389.035 159.815,388.760 159.511 C 388.589 159.322,388.347 159.167,388.224 159.167 C 388.101 159.167,388.000 159.102,388.000 159.023 C 388.000 158.944,387.812 158.915,387.583 158.959 C 387.354 159.003,387.167 159.097,387.167 159.168 C 387.167 159.605,386.038 159.325,385.655 158.792 C 385.515 158.599,384.498 158.333,383.896 158.333 C 383.512 158.333,383.349 158.244,383.285 158.000 C 383.216 157.735,383.058 157.667,382.512 157.667 C 381.934 157.667,381.795 157.598,381.628 157.231 C 381.442 156.824,381.375 156.802,380.601 156.893 C 380.074 156.956,379.679 156.919,379.512 156.793 C 379.368 156.684,379.303 156.657,379.367 156.734 C 379.729 157.164,378.769 157.463,378.260 157.078 C 378.082 156.943,377.759 156.833,377.543 156.833 C 377.156 156.833,376.162 156.403,376.000 156.164 C 375.954 156.097,375.551 155.998,375.103 155.944 C 374.656 155.890,374.163 155.731,374.007 155.590 C 373.685 155.298,373.000 155.244,373.000 155.510 C 373.000 155.607,372.915 155.634,372.811 155.570 C 372.396 155.313,368.713 155.254,368.419 155.498 C 368.312 155.587,368.156 155.595,368.071 155.518 C 367.813 155.283,366.893 155.174,366.711 155.356 C 366.594 155.473,366.331 155.421,365.879 155.190 C 365.295 154.892,365.190 154.882,364.971 155.100 C 364.785 155.286,364.619 155.307,364.298 155.185 C 363.492 154.878,358.336 155.042,358.088 155.382 C 357.902 155.637,357.860 155.642,357.775 155.422 C 357.677 155.167,356.668 155.054,356.449 155.274 C 356.268 155.454,354.521 155.502,354.414 155.329 C 354.266 155.089,354.000 155.132,354.000 155.396 C 354.000 155.656,351.431 155.694,351.032 155.440 C 350.907 155.361,350.597 155.391,350.308 155.511 C 349.918 155.672,349.774 155.674,349.680 155.521 C 349.612 155.412,349.431 155.370,349.278 155.429 C 349.122 155.489,349.000 155.455,349.000 155.351 C 349.000 155.085,348.652 155.124,348.435 155.415 C 348.291 155.608,347.770 155.672,346.085 155.706 C 344.283 155.743,343.870 155.799,343.626 156.042 C 343.262 156.405,343.000 156.416,343.000 156.069 C 343.000 155.661,339.161 155.982,338.716 156.427 C 338.568 156.575,338.350 156.600,338.024 156.507 C 337.461 156.345,336.674 156.469,336.378 156.765 C 336.225 156.918,336.016 156.934,335.625 156.821 C 335.269 156.719,335.064 156.724,335.027 156.836 C 334.911 157.185,334.464 157.500,334.085 157.500 C 333.521 157.500,333.167 157.668,333.167 157.934 C 333.167 158.215,333.129 158.218,332.601 157.978 C 332.269 157.826,332.136 157.840,331.930 158.046 C 331.660 158.316,330.307 158.261,330.194 157.975 C 330.078 157.679,329.652 157.851,329.497 158.257 C 329.372 158.586,329.272 158.648,329.043 158.537 C 328.564 158.304,328.093 158.394,327.937 158.750 C 327.810 159.037,327.638 159.081,326.687 159.069 C 325.802 159.058,325.509 159.122,325.207 159.391 C 324.874 159.689,324.584 159.730,322.707 159.748 C 321.539 159.759,320.471 159.817,320.333 159.877 C 320.196 159.937,319.896 159.988,319.667 159.991 C 319.438 159.994,318.725 160.003,318.083 160.011 C 317.442 160.020,315.529 160.013,313.833 159.997 C 312.137 159.980,310.623 160.018,310.468 160.081 C 310.314 160.143,310.066 160.127,309.919 160.045 C 309.766 159.959,309.172 159.953,308.534 160.031 C 307.919 160.106,307.304 160.122,307.167 160.067 C 307.029 160.013,305.419 159.935,303.589 159.894 C 301.759 159.854,300.222 159.759,300.173 159.683 C 300.070 159.525,298.687 159.344,297.304 159.307 C 296.537 159.287,296.344 159.225,296.278 158.975 C 296.181 158.603,295.307 158.547,295.019 158.894 C 294.906 159.030,294.649 159.087,294.374 159.036 C 294.122 158.989,293.354 158.949,292.667 158.947 C 291.811 158.944,291.364 158.872,291.249 158.717 C 291.117 158.539,291.016 158.610,290.783 159.044 C 290.518 159.536,290.420 159.590,289.908 159.531 C 289.556 159.490,289.171 159.568,288.921 159.732 C 288.696 159.879,288.351 160.000,288.155 160.000 C 287.959 160.000,287.502 160.234,287.140 160.521 C 286.425 161.087,285.458 161.131,284.862 160.625 C 284.709 160.494,284.058 160.256,283.417 160.094 C 282.775 159.933,281.823 159.660,281.301 159.488 C 280.779 159.315,280.029 159.122,279.634 159.060 C 279.144 158.982,278.635 158.718,278.026 158.223 C 277.537 157.825,277.030 157.491,276.901 157.479 C 276.772 157.468,276.610 157.445,276.542 157.428 C 276.473 157.411,276.177 157.341,275.885 157.271 C 275.516 157.183,275.338 157.034,275.302 156.781 C 275.258 156.475,275.137 156.414,274.551 156.403 C 274.166 156.395,273.742 156.298,273.608 156.188 C 273.418 156.029,273.347 156.032,273.279 156.201 C 273.232 156.320,273.186 156.229,273.177 156.000 C 273.165 155.668,273.129 155.634,273.000 155.833 C 272.911 155.971,272.831 156.046,272.822 156.000 C 272.813 155.954,272.770 155.693,272.725 155.420 C 272.627 154.811,272.524 154.692,272.346 154.980 C 272.241 155.150,272.127 155.111,271.843 154.808 L 271.475 154.417 271.169 154.792 C 271.001 154.998,270.810 155.167,270.745 155.167 C 270.679 155.167,270.714 155.060,270.822 154.931 C 270.978 154.742,270.949 154.673,270.675 154.586 C 270.487 154.526,270.333 154.377,270.333 154.254 C 270.333 154.108,270.210 154.063,269.974 154.125 C 269.746 154.185,269.654 154.155,269.723 154.044 C 269.783 153.947,269.724 153.827,269.593 153.777 C 269.462 153.727,269.318 153.775,269.274 153.884 C 269.228 153.997,269.187 153.961,269.180 153.804 C 269.156 153.288,268.685 152.958,268.391 153.252 C 268.079 153.564,267.787 153.410,267.917 153.000 C 267.993 152.759,267.944 152.712,267.686 152.780 C 267.444 152.843,267.289 152.731,267.092 152.349 C 266.822 151.828,266.601 151.636,266.767 152.066 C 266.816 152.195,266.775 152.350,266.675 152.411 C 266.576 152.473,266.545 152.604,266.606 152.704 C 266.668 152.803,266.642 152.838,266.548 152.780 C 266.455 152.722,266.399 152.486,266.424 152.255 C 266.450 152.024,266.400 151.791,266.314 151.738 C 266.229 151.685,266.179 151.704,266.204 151.779 C 266.301 152.070,265.920 152.029,265.756 151.731 C 265.661 151.558,265.563 151.384,265.538 151.343 C 265.513 151.303,265.376 151.436,265.235 151.638 L 264.977 152.006 264.488 151.658 C 264.220 151.467,264.000 151.365,264.000 151.431 C 264.000 151.497,263.864 151.429,263.698 151.278 C 263.491 151.091,263.341 151.059,263.224 151.176 C 263.106 151.294,262.979 151.256,262.818 151.058 C 262.666 150.871,262.657 150.813,262.792 150.895 C 262.923 150.973,263.000 150.923,263.000 150.760 C 263.000 150.530,262.815 150.430,262.474 150.475 C 262.414 150.483,262.272 150.377,262.159 150.240 C 261.977 150.021,261.914 150.026,261.630 150.283 C 261.453 150.443,261.326 150.501,261.347 150.412 C 261.448 149.992,261.125 149.671,260.708 149.775 C 260.444 149.842,260.322 149.819,260.386 149.716 C 260.535 149.475,259.752 149.106,259.328 149.216 C 259.023 149.296,258.981 149.254,259.059 148.947 C 259.137 148.635,259.122 148.621,258.950 148.848 C 258.840 148.994,258.663 149.083,258.556 149.047 C 258.449 149.011,258.315 149.129,258.258 149.309 C 258.150 149.649,257.641 149.958,257.710 149.641 C 257.732 149.542,257.637 149.439,257.500 149.413 C 257.083 149.333,256.403 149.022,256.620 149.011 C 257.184 148.981,256.403 148.335,255.720 148.266 C 255.612 148.255,255.468 148.190,255.401 148.123 C 255.185 147.907,254.493 147.991,254.395 148.246 C 254.312 148.462,254.271 148.462,254.054 148.244 C 253.918 148.108,253.719 148.052,253.612 148.119 C 253.314 148.305,253.000 148.322,253.000 148.152 C 253.000 148.068,253.068 148.000,253.152 148.000 C 253.235 148.000,253.279 147.869,253.248 147.708 C 253.217 147.548,253.186 147.348,253.179 147.264 C 253.172 147.180,253.117 147.160,253.057 147.221 C 252.997 147.281,252.844 147.245,252.718 147.140 C 252.542 146.994,252.439 147.019,252.270 147.251 C 252.098 147.485,252.022 147.503,251.916 147.333 C 251.827 147.189,251.847 147.155,251.974 147.234 C 252.088 147.304,252.167 147.249,252.167 147.099 C 252.167 146.810,251.682 146.510,251.386 146.616 C 251.278 146.655,251.105 146.529,251.001 146.335 C 250.875 146.099,250.713 146.016,250.507 146.081 C 250.337 146.135,250.088 146.065,249.946 145.922 C 249.806 145.782,249.582 145.667,249.449 145.667 C 249.316 145.667,249.121 145.562,249.015 145.435 C 248.776 145.147,247.971 144.968,248.101 145.232 C 248.151 145.334,248.081 145.281,247.945 145.115 C 247.789 144.924,247.659 144.878,247.589 144.990 C 247.529 145.087,247.368 145.167,247.230 145.167 C 247.093 145.167,247.017 145.107,247.063 145.034 C 247.108 144.961,247.083 144.801,247.008 144.679 C 246.855 144.432,246.499 144.577,246.503 144.885 C 246.504 145.018,246.553 145.009,246.648 144.857 C 246.748 144.700,246.826 144.687,246.906 144.816 C 246.968 144.917,246.936 145.000,246.833 145.000 C 246.729 145.000,246.702 145.091,246.772 145.208 C 246.845 145.330,246.766 145.312,246.584 145.167 C 246.296 144.937,246.280 144.943,246.386 145.250 C 246.499 145.578,246.497 145.578,246.250 145.260 C 246.113 145.082,245.997 144.819,245.994 144.676 C 245.990 144.479,245.939 144.497,245.786 144.750 C 245.674 144.933,245.484 145.104,245.363 145.129 C 245.241 145.154,245.189 145.098,245.247 145.004 C 245.306 144.910,245.232 144.833,245.083 144.833 C 244.935 144.833,244.855 144.900,244.906 144.982 C 244.956 145.064,244.830 145.131,244.624 145.130 C 244.129 145.128,242.944 145.585,242.870 145.806 C 242.838 145.903,242.703 145.940,242.570 145.889 C 242.438 145.838,242.218 145.889,242.081 146.002 C 241.945 146.115,241.833 146.158,241.833 146.098 C 241.833 146.038,241.695 146.062,241.526 146.153 C 241.328 146.259,241.149 146.260,241.027 146.157 C 240.922 146.069,240.869 146.044,240.910 146.102 C 241.144 146.432,239.865 147.058,239.042 147.017 C 238.744 147.002,238.500 147.067,238.500 147.161 C 238.500 147.256,238.317 147.333,238.093 147.333 C 237.869 147.333,237.640 147.408,237.583 147.500 C 237.527 147.592,237.255 147.667,236.980 147.667 C 236.689 147.667,236.523 147.597,236.583 147.500 C 236.642 147.406,236.505 147.333,236.270 147.333 C 236.041 147.333,235.807 147.408,235.750 147.500 C 235.693 147.592,235.351 147.667,234.990 147.667 C 234.629 147.667,234.333 147.742,234.333 147.833 C 234.333 147.925,234.222 148.000,234.085 148.000 C 233.949 148.000,233.685 148.130,233.500 148.289 C 233.156 148.583,232.097 148.747,232.262 148.480 C 232.312 148.400,232.232 148.333,232.083 148.333 C 231.935 148.333,231.855 148.400,231.905 148.481 C 231.955 148.563,231.774 148.662,231.502 148.702 C 231.231 148.742,230.987 148.712,230.962 148.635 C 230.936 148.558,230.313 148.671,229.577 148.885 C 228.840 149.099,228.147 149.243,228.036 149.206 C 227.923 149.169,227.833 149.283,227.833 149.465 C 227.833 149.828,226.107 150.110,225.729 149.810 C 225.626 149.728,225.420 149.708,225.270 149.765 C 225.120 149.823,224.813 149.749,224.588 149.602 C 224.363 149.454,224.070 149.333,223.936 149.333 C 223.803 149.333,223.665 149.246,223.629 149.138 C 223.583 148.998,223.416 149.017,223.034 149.208 C 222.735 149.357,222.462 149.406,222.408 149.320 C 222.240 149.047,221.683 149.158,221.500 149.500 C 221.319 149.838,220.833 149.965,220.833 149.674 C 220.833 149.579,220.187 149.548,219.208 149.598 C 215.066 149.809,214.764 149.802,214.536 149.481 C 214.366 149.239,214.238 149.211,213.901 149.339 C 213.668 149.428,213.258 149.500,212.989 149.500 C 212.720 149.500,212.500 149.586,212.500 149.691 C 212.500 149.830,212.032 149.850,210.792 149.765 C 209.852 149.700,208.483 149.626,207.750 149.599 C 205.829 149.530,204.004 149.184,203.607 148.814 C 203.402 148.623,203.027 148.500,202.649 148.500 C 201.883 148.500,201.500 148.363,201.500 148.089 C 201.500 147.635,199.649 147.637,199.227 148.092 C 198.608 148.760,197.167 148.696,197.167 148.000 C 197.167 147.519,197.139 147.500,196.417 147.500 C 195.961 147.500,195.667 147.576,195.667 147.692 C 195.667 147.989,191.902 147.750,191.401 147.422 C 191.187 147.281,190.859 147.167,190.673 147.167 C 190.436 147.167,190.333 147.058,190.333 146.808 C 190.333 146.455,190.302 146.451,188.253 146.548 C 187.024 146.606,186.134 146.582,186.077 146.490 C 186.024 146.404,185.760 146.333,185.490 146.333 C 185.166 146.333,185.000 146.249,185.000 146.083 C 185.000 145.791,185.309 145.812,180.465 145.777 C 176.994 145.752,176.662 145.724,176.456 145.442 C 176.256 145.168,175.948 145.130,173.739 145.102 C 171.208 145.069,170.833 145.001,170.833 144.573 C 170.833 144.292,169.585 144.228,169.417 144.500 C 169.360 144.592,169.060 144.667,168.750 144.667 C 168.440 144.667,168.140 144.592,168.083 144.500 C 168.020 144.398,166.720 144.333,164.740 144.333 C 162.691 144.333,161.500 144.272,161.500 144.167 C 161.500 144.075,161.387 144.000,161.250 144.000 C 161.112 144.000,161.000 144.075,161.000 144.167 C 161.000 144.407,160.435 144.372,159.389 144.068 C 158.555 143.826,158.451 143.826,158.183 144.068 C 157.768 144.444,157.155 144.408,157.048 144.000 C 156.982 143.747,156.821 143.667,156.382 143.667 C 155.942 143.667,155.781 143.586,155.715 143.333 C 155.667 143.150,155.533 143.000,155.418 143.000 C 155.303 143.000,154.974 142.953,154.688 142.896 C 154.294 142.817,154.167 142.851,154.167 143.036 C 154.167 143.170,153.975 143.367,153.741 143.474 C 153.180 143.729,151.500 143.545,151.500 143.227 C 151.500 142.975,150.893 142.911,150.806 143.154 C 150.676 143.515,149.865 143.532,149.514 143.181 C 149.323 142.990,149.092 142.833,149.000 142.833 C 148.908 142.833,148.833 142.683,148.833 142.500 C 148.833 142.317,148.747 142.167,148.641 142.167 C 148.535 142.167,148.183 141.965,147.860 141.718 C 147.478 141.427,147.248 141.339,147.205 141.468 C 147.169 141.577,147.065 141.667,146.974 141.667 C 146.884 141.667,146.691 141.786,146.545 141.931 C 146.399 142.077,146.112 142.163,145.904 142.123 C 145.587 142.063,145.532 142.119,145.555 142.484 C 145.589 143.007,143.644 143.164,143.329 142.665 C 143.211 142.479,143.171 142.472,143.169 142.638 C 143.166 142.886,142.248 142.760,141.877 142.462 C 141.764 142.371,141.557 142.340,141.419 142.393 C 141.280 142.446,141.167 142.418,141.167 142.330 C 141.167 142.242,140.999 142.188,140.794 142.210 C 140.554 142.236,140.367 142.128,140.269 141.908 C 140.119 141.573,138.663 141.167,137.613 141.167 C 137.000 141.167,136.388 140.579,136.775 140.362 C 137.019 140.226,136.984 140.202,136.577 140.222 C 136.305 140.235,136.028 140.322,135.961 140.415 C 135.892 140.509,135.837 140.442,135.836 140.264 C 135.834 140.088,135.792 139.986,135.741 140.036 C 135.691 140.087,135.284 139.989,134.837 139.819 C 134.228 139.588,134.004 139.561,133.942 139.714 C 133.879 139.869,133.857 139.870,133.846 139.716 C 133.826 139.406,132.662 139.238,132.484 139.520 C 132.361 139.714,132.338 139.714,132.336 139.521 C 132.334 139.327,132.290 139.327,132.051 139.521 C 131.865 139.673,131.811 139.680,131.893 139.544 C 131.977 139.404,131.934 139.369,131.760 139.436 C 131.618 139.490,131.551 139.614,131.610 139.710 C 131.670 139.806,131.640 139.836,131.543 139.777 C 131.315 139.636,130.123 140.133,129.945 140.444 C 129.836 140.634,129.755 140.643,129.566 140.486 C 129.369 140.322,129.346 140.339,129.438 140.579 C 129.530 140.819,129.486 140.851,129.192 140.758 C 128.995 140.695,128.833 140.712,128.833 140.794 C 128.833 140.877,128.443 140.921,127.966 140.892 C 127.411 140.859,127.052 140.914,126.969 141.045 C 126.867 141.205,126.838 141.205,126.836 141.047 C 126.834 140.935,126.721 140.887,126.583 140.940 C 126.259 141.064,125.461 140.865,125.571 140.687 C 125.617 140.612,125.425 140.544,125.144 140.536 C 124.863 140.528,124.491 140.392,124.317 140.235 C 124.142 140.077,124.000 140.007,124.000 140.078 C 124.000 140.149,123.899 140.124,123.776 140.022 C 123.653 139.920,123.503 139.886,123.443 139.946 C 123.383 140.006,123.333 139.964,123.333 139.851 C 123.333 139.739,123.256 139.694,123.163 139.753 C 123.069 139.811,123.012 139.761,123.038 139.641 C 123.063 139.522,122.910 139.398,122.699 139.366 C 122.413 139.323,122.358 139.254,122.486 139.100 C 122.619 138.940,122.540 138.910,122.139 138.969 C 121.834 139.013,121.660 138.979,121.717 138.886 C 121.884 138.616,120.730 138.288,120.343 138.495 C 120.059 138.647,120.024 138.631,120.116 138.392 C 120.198 138.178,120.158 138.134,119.951 138.214 C 119.800 138.272,119.628 138.239,119.568 138.141 C 119.468 137.979,119.045 138.004,117.871 138.240 C 117.657 138.283,117.534 138.247,117.589 138.158 C 117.642 138.071,117.567 138.000,117.421 138.000 C 117.275 138.000,117.118 138.099,117.072 138.220 C 117.018 138.359,116.805 138.414,116.494 138.368 C 116.222 138.328,116.000 138.366,116.000 138.453 C 116.000 138.539,115.606 138.784,115.125 138.996 C 113.144 139.871,112.830 140.000,112.679 140.000 C 112.593 140.000,112.311 140.086,112.053 140.192 C 111.794 140.297,111.396 140.369,111.167 140.351 C 110.822 140.324,110.793 140.351,111.000 140.508 C 111.213 140.670,111.206 140.684,110.955 140.603 C 110.642 140.502,109.500 140.969,109.500 141.198 C 109.500 141.272,109.421 141.333,109.325 141.333 C 109.228 141.333,108.538 141.638,107.792 142.011 C 106.875 142.468,106.323 142.652,106.092 142.577 C 105.650 142.434,104.236 142.196,102.699 142.008 C 102.029 141.926,101.372 141.768,101.238 141.656 C 101.104 141.545,100.677 141.386,100.289 141.304 C 99.901 141.221,99.396 141.112,99.167 141.062 C 98.938 141.012,98.206 140.980,97.542 140.992 C 96.877 141.004,96.333 140.952,96.333 140.875 C 96.333 140.799,95.527 140.745,94.542 140.755 C 93.435 140.766,92.445 140.683,91.952 140.538 C 91.513 140.408,91.051 140.342,90.924 140.391 C 90.798 140.439,90.653 140.371,90.602 140.239 C 90.552 140.108,90.396 140.000,90.255 140.000 C 90.115 140.000,90.000 139.931,90.000 139.847 C 90.000 139.762,89.775 139.644,89.500 139.583 C 89.225 139.523,89.000 139.408,89.000 139.328 C 89.000 139.247,88.737 139.132,88.415 139.072 C 88.093 139.012,87.789 138.896,87.738 138.814 C 87.688 138.733,87.464 138.667,87.240 138.667 C 86.990 138.667,86.833 138.571,86.833 138.417 C 86.833 138.187,86.433 138.080,85.863 138.157 C 85.741 138.174,85.535 138.098,85.404 137.990 C 85.274 137.881,85.167 137.848,85.167 137.917 C 85.167 137.985,85.073 137.967,84.958 137.877 C 84.844 137.787,84.506 137.735,84.208 137.760 C 83.910 137.786,83.667 137.733,83.667 137.642 C 83.667 137.552,83.523 137.523,83.347 137.579 C 83.172 137.635,82.980 137.602,82.920 137.506 C 82.861 137.410,82.641 137.375,82.430 137.428 C 82.220 137.481,81.765 137.406,81.420 137.262 C 81.075 137.118,80.521 137.000,80.188 136.999 C 79.855 136.998,79.377 136.890,79.125 136.759 C 78.847 136.614,78.667 136.588,78.667 136.694 C 78.667 136.794,78.542 136.819,78.375 136.752 C 78.084 136.635,77.705 136.537,77.448 136.513 C 77.374 136.506,77.368 136.412,77.434 136.305 C 77.520 136.166,77.463 136.150,77.236 136.250 C 76.714 136.478,75.488 136.416,75.321 136.153 C 75.237 136.020,75.171 135.999,75.169 136.106 C 75.168 136.209,74.979 136.330,74.750 136.374 C 74.517 136.419,74.333 136.376,74.333 136.277 C 74.333 136.154,74.278 136.155,74.153 136.280 C 74.024 136.410,73.840 136.395,73.505 136.227 C 73.151 136.051,72.925 136.037,72.573 136.171 C 72.318 136.268,72.010 136.309,71.888 136.262 C 71.767 136.215,71.498 136.252,71.292 136.343 C 70.925 136.506,70.925 136.508,71.279 136.440 C 71.503 136.398,71.614 136.443,71.569 136.561 C 71.529 136.665,71.253 136.759,70.956 136.769 C 70.659 136.779,69.705 137.092,68.834 137.463 C 67.964 137.835,67.209 138.069,67.157 137.984 C 67.104 137.899,66.729 138.129,66.322 138.496 C 65.916 138.862,65.485 139.163,65.365 139.164 C 65.245 139.166,65.193 139.242,65.250 139.333 C 65.307 139.425,65.280 139.500,65.190 139.500 C 65.101 139.500,65.000 139.418,64.967 139.317 C 64.811 138.850,62.288 139.878,61.562 140.704 C 61.264 141.045,60.677 141.417,60.076 141.647 C 59.530 141.856,58.953 142.096,58.794 142.180 C 58.635 142.264,58.416 142.333,58.307 142.333 C 58.198 142.333,57.991 142.439,57.846 142.567 C 57.702 142.696,57.021 143.076,56.333 143.413 C 55.646 143.749,54.896 144.126,54.667 144.250 C 52.895 145.208,52.816 145.237,52.532 145.041 C 52.225 144.830,50.859 144.159,50.125 143.860 C 49.873 143.758,49.667 143.597,49.667 143.504 C 49.667 143.410,49.439 143.333,49.161 143.333 C 48.883 143.333,48.483 143.221,48.273 143.083 C 48.062 142.945,47.709 142.846,47.487 142.863 C 47.043 142.896,45.870 142.552,45.541 142.291 C 45.426 142.200,45.111 142.170,44.839 142.224 C 44.568 142.278,44.307 142.258,44.258 142.180 C 44.210 142.102,43.915 141.990,43.602 141.931 C 43.289 141.872,42.942 141.714,42.830 141.579 C 42.718 141.444,42.371 141.333,42.059 141.333 C 41.612 141.333,41.452 141.243,41.297 140.903 C 41.118 140.511,41.038 140.482,40.409 140.576 C 39.895 140.653,39.664 140.614,39.505 140.423 C 39.388 140.282,39.161 140.167,39.000 140.167 C 38.839 140.167,38.614 140.054,38.500 139.917 C 38.386 139.779,38.156 139.667,37.989 139.667 C 37.823 139.667,37.643 139.597,37.590 139.511 C 37.538 139.426,37.064 139.260,36.539 139.142 C 36.013 139.025,35.261 138.757,34.866 138.548 C 34.472 138.338,33.895 138.167,33.584 138.167 C 33.274 138.167,32.979 138.100,32.928 138.019 C 32.878 137.938,32.581 137.823,32.269 137.764 C 31.956 137.706,31.608 137.547,31.496 137.412 C 31.384 137.277,31.039 137.167,30.730 137.167 C 30.420 137.167,30.167 137.094,30.167 137.004 C 30.167 136.791,28.788 136.167,28.317 136.167 C 28.114 136.167,27.716 135.994,27.432 135.782 C 26.888 135.376,25.478 134.736,24.917 134.640 C 24.733 134.609,24.540 134.525,24.488 134.454 C 24.339 134.254,17.492 134.145,16.917 134.334 M10.333 134.649 C 10.333 134.841,10.690 134.972,10.958 134.878 C 11.322 134.751,11.183 134.500,10.750 134.500 C 10.521 134.500,10.333 134.567,10.333 134.649 M11.438 134.886 C 11.373 135.133,11.400 135.167,11.543 135.024 C 11.648 134.919,11.881 134.833,12.061 134.833 C 12.469 134.833,12.277 134.613,11.842 134.581 C 11.653 134.567,11.489 134.691,11.438 134.886 M7.182 135.820 C 7.053 135.902,6.860 135.936,6.754 135.895 C 6.648 135.855,6.343 136.024,6.075 136.273 C 5.561 136.749,5.718 136.996,6.328 136.670 C 6.518 136.568,6.766 136.538,6.878 136.602 C 6.991 136.667,7.028 136.659,6.960 136.584 C 6.812 136.420,7.149 135.969,7.333 136.083 C 7.404 136.127,7.555 136.051,7.668 135.915 C 7.909 135.625,7.589 135.563,7.182 135.820 M3.553 137.769 C 3.190 137.948,3.054 138.112,3.121 138.289 C 3.210 138.519,3.242 138.517,3.418 138.276 C 3.527 138.127,3.665 138.054,3.725 138.114 C 3.784 138.173,3.833 138.130,3.833 138.018 C 3.833 137.906,3.896 137.852,3.972 137.899 C 4.049 137.947,4.111 137.876,4.111 137.743 C 4.111 137.609,4.105 137.502,4.097 137.504 C 4.090 137.506,3.845 137.625,3.553 137.769 M176.833 137.677 C 176.833 137.774,176.764 137.810,176.678 137.757 C 176.593 137.704,176.478 137.734,176.424 137.822 C 176.368 137.911,176.474 137.954,176.662 137.918 C 176.848 137.882,177.000 137.916,177.000 137.994 C 177.000 138.198,177.621 138.006,177.848 137.732 C 178.007 137.541,177.934 137.500,177.437 137.500 C 177.105 137.500,176.833 137.579,176.833 137.677 M1.271 138.465 C 1.226 138.538,1.333 138.608,1.508 138.621 C 1.683 138.635,1.870 138.575,1.923 138.489 C 1.976 138.404,1.870 138.333,1.686 138.333 C 1.503 138.333,1.316 138.393,1.271 138.465 M135.500 140.423 C 135.500 140.465,135.362 140.500,135.194 140.500 C 135.026 140.500,134.889 140.392,134.889 140.259 C 134.889 140.077,134.964 140.058,135.194 140.182 C 135.362 140.271,135.500 140.380,135.500 140.423 M248.905 145.481 C 248.955 145.562,248.866 145.729,248.706 145.851 C 248.547 145.973,248.472 146.007,248.540 145.927 C 248.608 145.846,248.580 145.680,248.478 145.557 C 248.336 145.386,248.354 145.333,248.553 145.333 C 248.696 145.333,248.855 145.400,248.905 145.481 " stroke="none" fill="#cc7473" fill-rule="evenodd"></path><path id="path1" d="M9.941 134.615 C 9.878 134.677,9.697 134.744,9.538 134.763 C 8.957 134.831,7.041 135.602,6.763 135.880 C 6.414 136.229,6.626 136.250,7.074 135.911 C 7.526 135.569,7.950 135.576,7.663 135.921 C 7.547 136.060,7.414 136.136,7.367 136.089 C 7.250 135.972,6.819 136.342,6.906 136.483 C 6.944 136.545,6.850 136.604,6.696 136.615 C 6.542 136.626,6.236 136.691,6.016 136.760 C 5.732 136.849,5.649 136.830,5.733 136.695 C 5.809 136.571,5.760 136.539,5.593 136.603 C 5.451 136.657,5.372 136.761,5.417 136.833 C 5.461 136.906,5.382 137.010,5.240 137.064 C 5.077 137.127,5.025 137.095,5.098 136.976 C 5.167 136.864,5.121 136.821,4.982 136.867 C 4.854 136.910,4.741 137.032,4.729 137.139 C 4.688 137.519,4.664 137.539,4.458 137.368 C 4.310 137.245,4.152 137.269,3.916 137.453 C 3.702 137.620,3.677 137.680,3.847 137.622 C 4.003 137.569,4.111 137.625,4.111 137.759 C 4.111 137.883,4.049 137.947,3.972 137.899 C 3.896 137.852,3.833 137.898,3.833 138.000 C 3.833 138.102,3.766 138.145,3.684 138.094 C 3.602 138.043,3.486 138.131,3.425 138.288 C 3.334 138.525,3.291 138.534,3.170 138.338 C 3.073 138.181,3.118 138.031,3.304 137.890 C 3.457 137.773,3.508 137.675,3.417 137.673 C 3.182 137.667,2.300 138.267,2.333 138.410 C 2.349 138.475,2.305 138.578,2.237 138.639 C 2.169 138.700,2.167 138.656,2.233 138.542 C 2.386 138.276,2.130 138.270,1.867 138.533 C 1.711 138.689,1.622 138.689,1.467 138.533 C 1.194 138.261,1.000 138.282,1.000 138.583 C 1.000 138.721,0.925 138.833,0.833 138.833 C 0.742 138.833,0.667 138.718,0.667 138.578 C 0.667 138.438,0.555 138.280,0.418 138.227 C 0.281 138.175,0.210 138.065,0.261 137.983 C 0.312 137.900,0.278 137.833,0.186 137.833 C 0.081 137.833,0.018 139.173,0.014 141.500 C 0.008 144.748,0.037 145.167,0.273 145.167 C 0.466 145.167,0.513 145.063,0.444 144.792 C 0.357 144.444,0.366 144.439,0.575 144.717 C 0.699 144.883,0.939 145.016,1.108 145.013 C 1.897 145.001,2.259 144.896,2.361 144.649 C 2.422 144.501,2.703 144.334,2.986 144.278 C 3.454 144.184,3.728 143.833,3.333 143.833 C 2.937 143.833,3.155 142.740,3.558 142.707 C 4.021 142.669,4.849 142.359,4.530 142.344 C 4.409 142.338,4.204 142.228,4.074 142.098 C 3.945 141.969,3.750 141.833,3.640 141.797 C 3.249 141.666,3.697 141.333,4.263 141.333 C 4.795 141.333,4.832 141.301,4.735 140.917 C 4.676 140.681,4.703 140.500,4.797 140.500 C 4.888 140.500,4.953 140.629,4.940 140.788 C 4.925 140.973,5.035 141.074,5.250 141.072 C 5.433 141.070,5.563 140.972,5.538 140.855 C 5.512 140.738,5.565 140.687,5.655 140.743 C 5.745 140.799,5.937 140.617,6.081 140.339 C 6.234 140.041,6.474 139.833,6.663 139.833 C 7.484 139.833,7.871 139.469,7.764 138.798 C 7.647 138.066,8.659 137.281,9.002 137.837 C 9.204 138.163,10.709 138.213,11.112 137.908 C 11.292 137.772,11.331 137.675,11.208 137.672 C 11.094 137.669,11.000 137.546,11.000 137.398 C 11.000 137.197,11.120 137.146,11.474 137.198 C 11.865 137.256,11.984 137.186,12.154 136.801 C 12.268 136.544,12.488 136.333,12.644 136.333 C 12.986 136.333,13.604 135.677,13.290 135.647 C 13.176 135.636,13.034 135.634,12.974 135.642 C 12.914 135.650,12.885 135.527,12.909 135.370 C 12.938 135.191,13.073 135.104,13.269 135.139 C 13.526 135.184,13.545 135.155,13.370 134.975 C 13.109 134.708,11.925 134.716,11.598 134.988 C 11.402 135.151,11.375 135.125,11.449 134.843 C 11.554 134.441,11.407 134.402,11.067 134.743 C 10.822 134.988,10.333 134.925,10.333 134.649 C 10.333 134.472,10.103 134.452,9.941 134.615 M73.500 136.222 C 73.774 136.369,73.988 136.391,74.125 136.286 C 74.259 136.183,74.333 136.184,74.333 136.290 C 74.333 136.380,74.521 136.418,74.750 136.374 C 75.505 136.230,75.185 136.050,74.125 136.024 C 73.164 136.000,73.116 136.015,73.500 136.222 M75.333 136.147 C 75.333 136.250,75.427 136.342,75.542 136.352 C 76.525 136.441,76.839 136.433,77.029 136.312 C 77.173 136.221,77.046 136.170,76.667 136.167 C 76.346 136.164,75.915 136.117,75.708 136.062 C 75.483 136.001,75.333 136.036,75.333 136.147 M71.208 136.451 C 70.746 136.540,70.713 136.762,71.163 136.762 C 71.344 136.762,71.529 136.665,71.574 136.548 C 71.619 136.430,71.640 136.344,71.620 136.356 C 71.600 136.369,71.415 136.411,71.208 136.451 M77.366 136.422 C 77.415 136.471,77.596 136.539,77.769 136.574 C 77.942 136.609,78.215 136.690,78.375 136.753 C 78.535 136.817,78.667 136.795,78.667 136.704 C 78.667 136.613,78.498 136.494,78.292 136.438 C 77.825 136.313,77.248 136.303,77.366 136.422 M79.792 136.951 C 79.998 136.991,80.335 136.991,80.542 136.951 C 80.748 136.911,80.579 136.879,80.167 136.879 C 79.754 136.879,79.585 136.911,79.792 136.951 M150.667 136.994 C 150.529 137.071,150.117 137.214,149.750 137.310 C 147.771 137.832,145.652 138.578,144.724 139.079 C 142.583 140.236,141.999 140.364,139.750 140.176 C 136.458 139.900,135.284 139.732,134.605 139.442 C 133.319 138.893,131.700 139.057,130.343 139.874 C 129.248 140.533,128.932 140.833,129.333 140.833 C 129.425 140.833,129.500 140.754,129.500 140.657 C 129.500 140.560,129.570 140.524,129.656 140.577 C 129.742 140.630,129.874 140.568,129.948 140.438 C 130.124 140.132,131.317 139.637,131.543 139.777 C 131.640 139.836,131.670 139.806,131.610 139.710 C 131.551 139.614,131.618 139.490,131.760 139.436 C 131.934 139.369,131.977 139.404,131.893 139.544 C 131.811 139.680,131.865 139.673,132.051 139.521 C 132.290 139.327,132.334 139.327,132.336 139.521 C 132.338 139.714,132.361 139.714,132.484 139.520 C 132.659 139.243,133.762 139.395,133.891 139.714 C 133.949 139.856,133.978 139.859,133.987 139.724 C 133.994 139.615,134.145 139.569,134.331 139.618 C 134.514 139.666,134.633 139.752,134.597 139.811 C 134.561 139.869,134.712 139.932,134.933 139.951 C 135.737 140.021,135.833 140.060,135.836 140.319 C 135.837 140.474,135.889 140.514,135.961 140.415 C 136.028 140.322,136.305 140.235,136.577 140.222 C 136.984 140.202,137.019 140.226,136.775 140.362 C 136.388 140.579,137.000 141.167,137.613 141.167 C 138.663 141.167,140.119 141.573,140.269 141.908 C 140.367 142.128,140.554 142.236,140.794 142.210 C 140.999 142.188,141.167 142.242,141.167 142.330 C 141.167 142.418,141.280 142.446,141.419 142.393 C 141.557 142.340,141.764 142.371,141.877 142.462 C 142.248 142.760,143.166 142.886,143.169 142.638 C 143.171 142.472,143.211 142.479,143.329 142.665 C 143.644 143.164,145.589 143.007,145.555 142.484 C 145.532 142.119,145.587 142.063,145.904 142.123 C 146.112 142.163,146.399 142.077,146.545 141.931 C 146.691 141.786,146.884 141.667,146.974 141.667 C 147.065 141.667,147.169 141.577,147.205 141.468 C 147.248 141.339,147.478 141.427,147.860 141.718 C 148.183 141.965,148.535 142.167,148.641 142.167 C 148.747 142.167,148.833 142.317,148.833 142.500 C 148.833 142.683,148.908 142.833,149.000 142.833 C 149.092 142.833,149.323 142.990,149.514 143.181 C 149.865 143.532,150.676 143.515,150.806 143.154 C 150.893 142.911,151.500 142.975,151.500 143.227 C 151.500 143.545,153.180 143.729,153.741 143.474 C 153.975 143.367,154.167 143.170,154.167 143.036 C 154.167 142.851,154.294 142.817,154.688 142.896 C 154.974 142.953,155.303 143.000,155.418 143.000 C 155.533 143.000,155.667 143.150,155.715 143.333 C 155.781 143.586,155.942 143.667,156.382 143.667 C 156.821 143.667,156.982 143.747,157.048 144.000 C 157.155 144.408,157.768 144.444,158.183 144.068 C 158.451 143.826,158.555 143.826,159.389 144.068 C 160.435 144.372,161.000 144.407,161.000 144.167 C 161.000 144.075,161.112 144.000,161.250 144.000 C 161.387 144.000,161.500 144.075,161.500 144.167 C 161.500 144.272,162.691 144.333,164.740 144.333 C 166.720 144.333,168.020 144.398,168.083 144.500 C 168.140 144.592,168.440 144.667,168.750 144.667 C 169.060 144.667,169.360 144.592,169.417 144.500 C 169.585 144.228,170.833 144.292,170.833 144.573 C 170.833 145.001,171.208 145.069,173.739 145.102 C 175.948 145.130,176.256 145.168,176.456 145.442 C 176.662 145.724,176.994 145.752,180.465 145.777 C 185.309 145.812,185.000 145.791,185.000 146.083 C 185.000 146.249,185.166 146.333,185.490 146.333 C 185.760 146.333,186.024 146.404,186.077 146.490 C 186.134 146.582,187.024 146.606,188.253 146.548 C 190.302 146.451,190.333 146.455,190.333 146.808 C 190.333 147.058,190.436 147.167,190.673 147.167 C 190.859 147.167,191.187 147.281,191.401 147.422 C 191.902 147.750,195.667 147.989,195.667 147.692 C 195.667 147.576,195.961 147.500,196.417 147.500 C 197.139 147.500,197.167 147.519,197.167 148.000 C 197.167 148.696,198.608 148.760,199.227 148.092 C 199.649 147.637,201.500 147.635,201.500 148.089 C 201.500 148.363,201.883 148.500,202.649 148.500 C 203.027 148.500,203.402 148.623,203.607 148.814 C 204.004 149.184,205.829 149.530,207.750 149.599 C 208.483 149.626,209.852 149.700,210.792 149.765 C 212.032 149.850,212.500 149.830,212.500 149.691 C 212.500 149.586,212.720 149.500,212.989 149.500 C 213.258 149.500,213.668 149.428,213.901 149.339 C 214.238 149.211,214.366 149.239,214.536 149.481 C 214.764 149.802,215.066 149.809,219.208 149.598 C 220.187 149.548,220.833 149.579,220.833 149.674 C 220.833 149.965,221.319 149.838,221.500 149.500 C 221.683 149.158,222.240 149.047,222.408 149.320 C 222.462 149.406,222.735 149.357,223.034 149.208 C 223.416 149.017,223.583 148.998,223.629 149.138 C 223.665 149.246,223.803 149.333,223.936 149.333 C 224.070 149.333,224.363 149.454,224.588 149.602 C 224.813 149.749,225.120 149.823,225.270 149.765 C 225.420 149.708,225.626 149.728,225.729 149.810 C 226.107 150.110,227.833 149.828,227.833 149.465 C 227.833 149.283,227.923 149.169,228.036 149.206 C 228.147 149.243,228.840 149.099,229.577 148.885 C 230.313 148.671,230.936 148.558,230.962 148.635 C 230.987 148.712,231.231 148.742,231.502 148.702 C 231.774 148.662,231.955 148.563,231.905 148.481 C 231.855 148.400,231.935 148.333,232.083 148.333 C 232.232 148.333,232.312 148.400,232.262 148.480 C 232.097 148.747,233.156 148.583,233.500 148.289 C 233.685 148.130,233.949 148.000,234.085 148.000 C 234.222 148.000,234.333 147.925,234.333 147.833 C 234.333 147.742,234.629 147.667,234.990 147.667 C 235.351 147.667,235.693 147.592,235.750 147.500 C 235.807 147.408,236.041 147.333,236.270 147.333 C 236.505 147.333,236.642 147.406,236.583 147.500 C 236.523 147.597,236.689 147.667,236.980 147.667 C 237.255 147.667,237.527 147.592,237.583 147.500 C 237.640 147.408,237.869 147.333,238.093 147.333 C 238.317 147.333,238.500 147.256,238.500 147.161 C 238.500 147.067,238.744 147.002,239.042 147.017 C 239.865 147.058,241.144 146.432,240.910 146.102 C 240.869 146.044,240.922 146.069,241.027 146.157 C 241.149 146.260,241.328 146.259,241.526 146.153 C 241.695 146.062,241.833 146.038,241.833 146.098 C 241.833 146.158,241.945 146.115,242.081 146.002 C 242.218 145.889,242.438 145.838,242.570 145.889 C 242.703 145.940,242.838 145.903,242.870 145.806 C 242.944 145.585,244.129 145.128,244.624 145.130 C 244.830 145.131,244.956 145.064,244.906 144.982 C 244.855 144.900,244.935 144.833,245.083 144.833 C 245.232 144.833,245.306 144.910,245.247 145.004 C 245.113 145.222,245.542 145.140,245.706 144.917 C 246.135 144.332,245.018 144.465,243.615 145.166 C 242.221 145.863,240.378 146.045,239.870 145.536 C 239.682 145.348,239.488 145.234,239.439 145.283 C 239.390 145.332,238.894 145.068,238.338 144.696 C 237.781 144.324,237.165 143.969,236.970 143.907 C 236.775 143.845,236.019 143.391,235.290 142.897 C 234.561 142.404,233.879 141.998,233.774 141.996 C 233.669 141.994,233.396 141.846,233.167 141.667 C 232.938 141.487,232.586 141.339,232.385 141.337 C 232.184 141.335,231.973 141.258,231.917 141.167 C 231.796 140.972,230.723 140.940,230.608 141.127 C 230.564 141.197,229.604 141.248,228.473 141.240 C 226.501 141.226,226.108 141.299,225.482 141.796 C 225.262 141.970,225.177 141.963,225.003 141.754 C 224.505 141.154,223.279 141.422,222.325 142.341 C 221.212 143.414,220.576 143.690,218.867 143.841 C 217.908 143.925,217.384 144.053,217.157 144.259 C 216.873 144.516,216.776 144.526,216.415 144.333 C 216.069 144.147,215.664 144.149,213.958 144.347 C 210.611 144.735,201.745 144.623,200.353 144.175 C 199.581 143.927,198.847 143.833,197.671 143.833 C 196.715 143.833,195.718 143.732,195.235 143.585 C 194.785 143.449,194.004 143.335,193.500 143.332 C 191.919 143.323,190.292 143.019,189.912 142.662 C 189.719 142.481,189.379 142.330,189.156 142.327 C 188.933 142.323,188.490 142.098,188.173 141.827 C 187.728 141.446,187.432 141.333,186.881 141.333 C 186.488 141.333,186.167 141.255,186.167 141.159 C 186.167 141.064,186.073 141.001,185.958 141.021 C 185.354 141.123,182.833 140.274,182.833 139.969 C 182.833 139.894,182.717 139.833,182.575 139.833 C 182.433 139.833,182.040 139.696,181.700 139.528 C 180.757 139.061,178.789 137.981,178.426 137.730 C 178.157 137.544,178.058 137.544,177.843 137.728 C 177.489 138.030,177.000 138.190,177.000 138.004 C 177.000 137.921,176.848 137.882,176.662 137.918 C 176.474 137.954,176.368 137.911,176.424 137.822 C 176.478 137.734,176.593 137.704,176.678 137.757 C 176.764 137.810,176.833 137.778,176.833 137.687 C 176.833 137.596,177.077 137.491,177.375 137.454 C 177.859 137.394,177.844 137.384,177.229 137.360 C 176.781 137.343,176.465 137.425,176.324 137.594 C 175.681 138.370,174.066 138.828,171.968 138.831 C 170.895 138.832,170.143 138.904,170.077 139.010 C 170.010 139.119,169.638 139.149,169.109 139.090 C 168.637 139.036,166.900 139.057,165.250 139.134 C 162.098 139.283,161.906 139.330,160.000 140.419 C 158.785 141.114,157.560 140.783,157.128 139.643 C 157.071 139.493,156.455 139.056,155.759 138.672 C 155.063 138.288,154.278 137.792,154.014 137.570 C 153.751 137.348,153.340 137.167,153.101 137.167 C 152.862 137.167,152.667 137.092,152.667 137.000 C 152.667 136.799,151.021 136.794,150.667 136.994 M81.500 137.279 C 81.821 137.425,82.440 137.553,82.875 137.563 C 83.310 137.573,83.667 137.632,83.667 137.694 C 83.667 137.757,83.910 137.786,84.208 137.760 C 84.506 137.735,84.844 137.787,84.958 137.877 C 85.073 137.967,85.167 137.985,85.167 137.917 C 85.167 137.848,85.260 137.868,85.375 137.961 C 85.573 138.122,86.596 138.207,86.439 138.050 C 86.268 137.879,83.878 137.348,82.853 137.252 C 82.246 137.196,81.563 137.119,81.333 137.082 C 81.015 137.030,81.055 137.077,81.500 137.279 M67.231 137.407 C 66.980 138.059,67.222 138.153,68.143 137.762 L 69.036 137.382 68.497 137.274 C 67.670 137.109,67.331 137.144,67.231 137.407 M116.528 138.146 C 116.358 138.254,116.384 138.308,116.642 138.375 C 116.843 138.428,117.014 138.370,117.067 138.232 C 117.166 137.975,116.872 137.928,116.528 138.146 M117.570 138.189 C 117.495 138.310,118.527 138.190,118.658 138.063 C 118.699 138.022,118.487 138.008,118.187 138.031 C 117.887 138.054,117.609 138.125,117.570 138.189 M120.105 138.421 C 120.025 138.628,120.068 138.642,120.337 138.498 C 120.723 138.291,120.760 138.167,120.434 138.167 C 120.307 138.167,120.158 138.281,120.105 138.421 M86.833 138.500 C 86.833 138.592,87.006 138.667,87.217 138.667 C 87.428 138.667,87.671 138.732,87.758 138.812 C 87.845 138.892,88.142 139.001,88.417 139.055 C 88.791 139.129,88.706 139.051,88.083 138.746 C 87.185 138.306,86.833 138.237,86.833 138.500 M121.379 138.557 C 121.633 138.674,121.789 138.822,121.726 138.885 C 121.663 138.948,121.811 139.000,122.056 139.000 C 122.942 139.000,122.599 138.596,121.583 138.444 C 120.940 138.348,120.933 138.352,121.379 138.557 M114.583 138.900 C 113.395 139.417,112.380 139.984,112.627 139.993 C 112.839 140.000,113.729 139.635,115.250 138.915 C 116.294 138.421,115.714 138.408,114.583 138.900 M122.507 139.075 C 122.352 139.261,122.390 139.319,122.699 139.366 C 122.910 139.398,123.063 139.522,123.038 139.641 C 123.012 139.761,123.069 139.811,123.163 139.753 C 123.256 139.694,123.333 139.739,123.333 139.851 C 123.333 139.964,123.383 140.006,123.443 139.946 C 123.503 139.886,123.653 139.920,123.776 140.022 C 123.899 140.124,123.999 140.142,123.997 140.062 C 123.989 139.693,122.702 138.840,122.507 139.075 M89.000 139.320 C 89.000 139.404,89.225 139.523,89.500 139.583 C 89.775 139.644,90.000 139.762,90.000 139.847 C 90.000 139.931,90.115 140.000,90.255 140.000 C 90.396 140.000,90.552 140.108,90.602 140.239 C 90.653 140.371,90.804 140.437,90.939 140.385 C 91.108 140.320,90.926 140.118,90.348 139.729 C 89.528 139.177,89.000 139.017,89.000 139.320 M134.889 140.259 C 134.889 140.392,135.026 140.500,135.194 140.500 C 135.362 140.500,135.500 140.465,135.500 140.423 C 135.500 140.380,135.362 140.271,135.194 140.182 C 134.964 140.058,134.889 140.077,134.889 140.259 M124.393 140.296 C 124.449 140.386,124.689 140.497,124.927 140.543 C 125.436 140.640,125.259 140.424,124.687 140.251 C 124.441 140.176,124.330 140.193,124.393 140.296 M125.594 140.649 C 125.484 140.827,125.886 141.002,126.389 140.995 C 126.742 140.990,126.743 140.984,126.426 140.745 C 126.060 140.467,125.730 140.429,125.594 140.649 M96.333 140.833 C 96.333 140.925,96.727 140.995,97.208 140.988 C 97.851 140.980,97.995 140.939,97.750 140.833 C 97.283 140.633,96.333 140.633,96.333 140.833 M350.833 141.340 C 350.604 141.429,350.289 141.727,350.133 142.001 C 349.968 142.291,349.711 142.500,349.519 142.500 C 349.338 142.500,349.143 142.646,349.086 142.824 C 348.975 143.175,347.597 144.094,346.933 144.261 C 346.709 144.317,346.395 144.507,346.236 144.682 C 346.078 144.857,345.857 145.000,345.745 145.000 C 345.633 145.000,345.463 145.094,345.368 145.208 C 345.248 145.352,344.662 145.412,343.472 145.402 C 339.717 145.371,334.037 145.667,333.553 145.920 C 333.295 146.054,332.982 146.165,332.859 146.166 C 332.735 146.166,332.397 146.274,332.109 146.405 C 331.820 146.537,331.099 146.764,330.506 146.911 C 329.914 147.058,329.389 147.243,329.339 147.324 C 329.290 147.404,328.967 147.522,328.623 147.587 C 328.278 147.652,327.955 147.771,327.905 147.852 C 327.855 147.934,327.646 148.000,327.440 148.000 C 327.235 148.000,326.978 148.088,326.871 148.196 C 326.763 148.304,326.317 148.444,325.879 148.507 C 325.441 148.571,324.746 148.743,324.333 148.890 C 323.232 149.283,321.142 149.815,319.333 150.163 C 318.921 150.242,318.133 150.537,317.583 150.818 C 317.033 151.099,316.377 151.330,316.125 151.331 C 315.873 151.332,315.667 151.400,315.667 151.482 C 315.667 151.686,315.225 151.858,314.333 152.002 C 313.921 152.068,313.246 152.238,312.833 152.379 C 312.001 152.664,308.605 153.366,308.083 153.360 C 306.671 153.346,303.044 153.727,302.833 153.912 C 302.696 154.033,302.246 154.174,301.833 154.225 C 299.326 154.533,298.619 154.678,298.206 154.968 C 297.955 155.144,297.377 155.343,296.921 155.410 C 296.397 155.487,296.011 155.648,295.870 155.849 C 295.748 156.024,295.521 156.168,295.366 156.170 C 295.210 156.172,294.896 156.321,294.667 156.500 C 294.438 156.679,294.154 156.828,294.036 156.830 C 293.919 156.832,293.779 156.949,293.725 157.089 C 293.605 157.401,292.807 157.833,292.350 157.833 C 291.935 157.833,291.149 158.539,291.303 158.774 C 291.366 158.869,291.979 158.948,292.667 158.949 C 293.354 158.950,294.122 158.989,294.374 159.036 C 294.649 159.087,294.906 159.030,295.019 158.894 C 295.307 158.547,296.181 158.603,296.278 158.975 C 296.344 159.225,296.537 159.287,297.304 159.307 C 298.687 159.344,300.070 159.525,300.173 159.683 C 300.222 159.759,301.759 159.854,303.589 159.894 C 305.419 159.935,307.029 160.013,307.167 160.067 C 307.304 160.122,307.919 160.106,308.534 160.031 C 309.172 159.953,309.766 159.959,309.919 160.045 C 310.066 160.127,310.314 160.143,310.468 160.081 C 310.623 160.018,312.137 159.980,313.833 159.997 C 315.529 160.013,317.442 160.020,318.083 160.011 C 318.725 160.003,319.438 159.994,319.667 159.991 C 319.896 159.988,320.196 159.937,320.333 159.877 C 320.471 159.817,321.539 159.759,322.707 159.748 C 324.584 159.730,324.874 159.689,325.207 159.391 C 325.509 159.122,325.802 159.058,326.687 159.069 C 327.638 159.081,327.810 159.037,327.937 158.750 C 328.093 158.394,328.564 158.304,329.043 158.537 C 329.272 158.648,329.372 158.586,329.497 158.257 C 329.652 157.851,330.078 157.679,330.194 157.975 C 330.307 158.261,331.660 158.316,331.930 158.046 C 332.136 157.840,332.269 157.826,332.601 157.978 C 333.129 158.218,333.167 158.215,333.167 157.934 C 333.167 157.668,333.521 157.500,334.085 157.500 C 334.464 157.500,334.911 157.185,335.027 156.836 C 335.064 156.724,335.269 156.719,335.625 156.821 C 336.016 156.934,336.225 156.918,336.378 156.765 C 336.674 156.469,337.461 156.345,338.024 156.507 C 338.350 156.600,338.568 156.575,338.716 156.427 C 339.161 155.982,343.000 155.661,343.000 156.069 C 343.000 156.416,343.262 156.405,343.626 156.042 C 343.870 155.799,344.283 155.743,346.085 155.706 C 347.770 155.672,348.291 155.608,348.435 155.415 C 348.652 155.124,349.000 155.085,349.000 155.351 C 349.000 155.455,349.122 155.489,349.278 155.429 C 349.431 155.370,349.612 155.412,349.680 155.521 C 349.774 155.674,349.918 155.672,350.308 155.511 C 350.597 155.391,350.907 155.361,351.032 155.440 C 351.431 155.694,354.000 155.656,354.000 155.396 C 354.000 155.132,354.266 155.089,354.414 155.329 C 354.521 155.502,356.268 155.454,356.449 155.274 C 356.668 155.054,357.677 155.167,357.775 155.422 C 357.860 155.642,357.902 155.637,358.088 155.382 C 358.336 155.042,363.492 154.878,364.298 155.185 C 364.619 155.307,364.785 155.286,364.971 155.100 C 365.190 154.882,365.295 154.892,365.879 155.190 C 366.331 155.421,366.594 155.473,366.711 155.356 C 366.891 155.176,367.791 155.282,368.096 155.519 C 368.194 155.596,368.347 155.587,368.435 155.499 C 368.680 155.253,372.396 155.313,372.811 155.570 C 372.915 155.634,373.000 155.607,373.000 155.510 C 373.000 155.244,373.685 155.298,374.007 155.590 C 374.163 155.731,374.656 155.890,375.103 155.944 C 375.551 155.998,375.954 156.097,376.000 156.164 C 376.162 156.403,377.156 156.833,377.543 156.833 C 377.759 156.833,378.082 156.943,378.260 157.078 C 378.769 157.463,379.729 157.164,379.367 156.734 C 379.303 156.657,379.368 156.684,379.512 156.793 C 379.679 156.919,380.074 156.956,380.601 156.893 C 381.375 156.802,381.442 156.824,381.628 157.231 C 381.795 157.598,381.934 157.667,382.512 157.667 C 383.058 157.667,383.216 157.735,383.285 158.000 C 383.349 158.244,383.512 158.333,383.896 158.333 C 384.498 158.333,385.515 158.599,385.655 158.792 C 386.038 159.325,387.167 159.605,387.167 159.168 C 387.167 159.097,387.354 159.003,387.583 158.959 C 387.813 158.915,388.000 158.944,388.000 159.023 C 388.000 159.102,388.101 159.167,388.224 159.167 C 388.347 159.167,388.589 159.322,388.760 159.511 C 389.035 159.815,389.203 159.845,390.195 159.762 C 390.813 159.711,391.518 159.745,391.763 159.838 C 392.008 159.932,392.705 160.039,393.313 160.077 C 393.920 160.115,394.754 160.231,395.167 160.335 C 395.579 160.440,396.348 160.537,396.875 160.552 C 397.402 160.566,397.833 160.636,397.833 160.706 C 397.833 160.776,398.016 160.833,398.240 160.833 C 398.464 160.833,398.693 160.908,398.750 161.000 C 398.807 161.092,398.999 161.167,399.177 161.167 C 399.354 161.167,399.500 161.279,399.500 161.417 C 399.500 161.554,399.613 161.667,399.750 161.667 C 399.968 161.667,400.000 160.759,400.000 154.500 C 400.000 147.699,399.985 147.333,399.699 147.333 C 399.533 147.333,398.877 147.071,398.240 146.751 C 397.604 146.430,396.953 146.167,396.794 146.167 C 396.397 146.166,394.981 145.827,394.627 145.647 C 394.468 145.566,394.207 145.500,394.047 145.500 C 393.886 145.500,393.379 145.318,392.919 145.095 C 392.460 144.873,391.746 144.596,391.333 144.482 C 390.921 144.367,390.508 144.222,390.417 144.159 C 389.484 143.520,383.913 143.656,382.363 144.355 C 381.966 144.534,381.272 144.750,380.819 144.836 C 380.367 144.922,379.716 145.141,379.373 145.323 C 378.413 145.832,377.636 146.167,377.414 146.167 C 377.302 146.167,377.021 146.317,376.788 146.500 C 376.335 146.856,375.588 146.944,375.414 146.662 C 375.353 146.563,374.821 146.510,374.165 146.537 C 373.102 146.580,372.986 146.549,372.522 146.104 C 371.830 145.441,370.500 145.903,370.500 146.806 C 370.500 147.207,370.183 147.492,369.855 147.388 C 369.624 147.315,369.620 147.328,369.829 147.476 C 370.041 147.625,370.023 147.720,369.704 148.151 C 369.500 148.427,369.333 148.723,369.333 148.809 C 369.333 149.328,365.331 149.357,364.481 148.845 C 364.171 148.657,363.729 148.426,363.500 148.331 C 363.271 148.235,362.686 147.990,362.200 147.787 C 361.715 147.583,360.852 147.017,360.284 146.528 C 359.715 146.039,358.836 145.395,358.330 145.097 C 357.220 144.443,355.466 142.653,355.289 141.993 C 355.219 141.731,355.099 141.478,355.023 141.431 C 354.744 141.259,351.238 141.183,350.833 141.340 M246.111 144.444 C 245.932 144.623,245.982 144.913,246.250 145.260 C 246.497 145.578,246.499 145.578,246.386 145.250 C 246.280 144.943,246.296 144.937,246.584 145.167 C 246.766 145.312,246.845 145.330,246.772 145.208 C 246.702 145.091,246.729 145.000,246.833 145.000 C 246.936 145.000,246.968 144.917,246.906 144.816 C 246.826 144.687,246.748 144.700,246.648 144.857 C 246.553 145.009,246.504 145.018,246.503 144.885 C 246.499 144.577,246.855 144.432,247.008 144.679 C 247.083 144.801,247.108 144.961,247.063 145.034 C 247.017 145.107,247.093 145.167,247.230 145.167 C 247.368 145.167,247.529 145.087,247.589 144.990 C 247.659 144.878,247.789 144.924,247.945 145.115 C 248.081 145.281,248.151 145.334,248.101 145.232 C 247.971 144.968,248.776 145.147,249.015 145.435 C 249.121 145.562,249.316 145.667,249.449 145.667 C 249.582 145.667,249.806 145.782,249.946 145.922 C 250.088 146.065,250.337 146.135,250.507 146.081 C 250.713 146.016,250.875 146.100,251.003 146.338 C 251.116 146.550,251.291 146.655,251.438 146.598 C 251.573 146.546,251.643 146.569,251.594 146.650 C 251.544 146.730,251.631 146.785,251.787 146.773 C 251.943 146.760,252.099 146.890,252.135 147.061 C 252.179 147.277,252.135 147.333,251.990 147.244 C 251.847 147.155,251.824 147.183,251.916 147.333 C 252.022 147.503,252.098 147.485,252.270 147.251 C 252.439 147.019,252.542 146.994,252.718 147.140 C 252.844 147.245,252.997 147.281,253.057 147.221 C 253.117 147.160,253.172 147.180,253.179 147.264 C 253.186 147.348,253.217 147.548,253.248 147.708 C 253.279 147.869,253.235 148.000,253.152 148.000 C 253.068 148.000,253.000 148.068,253.000 148.152 C 253.000 148.322,253.314 148.305,253.612 148.119 C 253.719 148.052,253.918 148.108,254.054 148.244 C 254.271 148.462,254.312 148.462,254.395 148.246 C 254.493 147.991,255.185 147.907,255.401 148.123 C 255.468 148.190,255.612 148.255,255.720 148.266 C 256.403 148.335,257.184 148.981,256.620 149.011 C 256.403 149.022,257.083 149.333,257.500 149.413 C 257.637 149.439,257.732 149.542,257.710 149.641 C 257.640 149.960,258.150 149.648,258.259 149.306 C 258.317 149.122,258.461 149.013,258.585 149.061 C 258.706 149.107,258.850 149.030,258.905 148.888 C 258.973 148.710,258.929 148.658,258.764 148.722 C 258.632 148.772,258.431 148.701,258.316 148.563 C 258.182 148.401,257.964 148.348,257.701 148.414 C 257.445 148.478,257.189 148.421,257.010 148.259 C 256.854 148.117,256.356 147.951,255.904 147.890 C 255.453 147.829,254.837 147.641,254.537 147.473 C 254.236 147.304,253.886 147.167,253.758 147.167 C 253.566 147.167,251.978 146.446,250.792 145.820 C 250.339 145.582,249.999 145.410,248.873 144.851 C 247.874 144.356,246.415 144.141,246.111 144.444 M248.478 145.557 C 248.580 145.680,248.608 145.846,248.540 145.927 C 248.472 146.007,248.547 145.973,248.706 145.851 C 249.031 145.603,248.951 145.333,248.553 145.333 C 248.354 145.333,248.336 145.386,248.478 145.557 M259.110 148.779 C 258.864 149.025,259.012 149.299,259.344 149.212 C 259.733 149.110,260.535 149.475,260.401 149.692 C 260.353 149.770,260.426 149.833,260.564 149.833 C 261.086 149.833,260.974 149.520,260.333 149.186 C 259.966 148.995,259.667 148.884,259.667 148.940 C 259.667 148.995,259.566 148.957,259.443 148.855 C 259.320 148.753,259.170 148.719,259.110 148.779 M261.167 149.823 C 261.167 149.910,261.243 150.027,261.336 150.085 C 261.429 150.143,261.456 150.278,261.396 150.387 C 261.336 150.495,261.428 150.449,261.602 150.286 C 261.875 150.027,261.884 149.967,261.667 149.830 C 261.346 149.627,261.167 149.625,261.167 149.823 M262.142 150.208 C 262.256 150.323,262.421 150.426,262.508 150.438 C 262.595 150.449,262.742 150.468,262.833 150.479 C 262.925 150.491,263.000 150.617,263.000 150.760 C 263.000 150.923,262.923 150.973,262.792 150.895 C 262.657 150.813,262.666 150.871,262.818 151.058 C 262.979 151.256,263.106 151.294,263.224 151.176 C 263.341 151.059,263.491 151.091,263.698 151.278 C 263.864 151.429,264.000 151.497,264.000 151.431 C 264.000 151.365,264.217 151.465,264.481 151.653 C 264.906 151.956,264.987 151.967,265.172 151.744 C 265.287 151.605,265.351 151.475,265.315 151.454 C 265.279 151.433,265.009 151.247,264.715 151.041 C 264.421 150.835,264.064 150.667,263.921 150.667 C 263.670 150.667,263.495 150.598,262.711 150.193 C 262.192 149.924,261.867 149.933,262.142 150.208 M265.667 151.534 C 265.667 151.796,266.135 152.283,266.317 152.210 C 266.372 152.188,266.418 152.277,266.419 152.407 C 266.420 152.537,266.457 152.667,266.502 152.697 C 266.547 152.726,266.565 152.719,266.543 152.682 C 266.521 152.645,266.589 152.510,266.694 152.383 C 266.839 152.209,266.838 152.105,266.693 151.960 C 266.587 151.853,266.500 151.832,266.500 151.912 C 266.500 151.993,266.313 151.882,266.083 151.667 C 265.764 151.366,265.667 151.336,265.667 151.534 M267.000 152.135 C 267.000 152.472,267.468 152.881,267.737 152.778 C 267.961 152.692,268.000 152.737,267.921 152.987 C 267.787 153.407,268.074 153.569,268.391 153.252 C 268.685 152.958,269.156 153.288,269.180 153.804 C 269.187 153.961,269.228 153.997,269.274 153.884 C 269.318 153.775,269.462 153.727,269.593 153.777 C 269.724 153.827,269.783 153.947,269.723 154.044 C 269.654 154.155,269.746 154.185,269.974 154.125 C 270.210 154.063,270.333 154.108,270.333 154.254 C 270.333 154.377,270.487 154.526,270.675 154.586 C 270.949 154.673,270.978 154.742,270.822 154.931 C 270.714 155.060,270.692 155.167,270.773 155.167 C 270.854 155.167,271.013 155.017,271.128 154.833 C 271.242 154.650,271.429 154.501,271.543 154.503 C 271.682 154.504,271.668 154.564,271.500 154.685 C 271.289 154.837,271.295 154.850,271.542 154.771 C 271.702 154.719,271.833 154.742,271.833 154.821 C 271.833 154.900,271.946 155.008,272.083 155.060 C 272.236 155.119,272.333 155.061,272.333 154.911 C 272.333 154.777,272.225 154.667,272.092 154.667 C 271.959 154.667,271.790 154.567,271.717 154.445 C 271.643 154.322,271.171 154.014,270.667 153.760 C 270.162 153.506,269.563 153.191,269.333 153.062 C 269.104 152.932,268.748 152.855,268.542 152.890 C 268.314 152.929,268.167 152.870,268.167 152.739 C 268.167 152.621,267.930 152.406,267.641 152.262 C 267.035 151.960,267.000 151.953,267.000 152.135 M272.733 155.333 C 272.771 155.654,272.811 155.954,272.821 156.000 C 272.830 156.046,272.911 155.971,273.000 155.833 C 273.129 155.634,273.165 155.668,273.177 156.000 C 273.186 156.229,273.232 156.318,273.280 156.198 C 273.352 156.020,273.419 156.022,273.642 156.210 C 273.820 156.359,274.092 156.402,274.417 156.330 L 274.917 156.221 274.123 155.865 C 273.686 155.670,273.286 155.527,273.234 155.547 C 273.182 155.567,273.032 155.396,272.901 155.167 C 272.664 154.752,272.663 154.753,272.733 155.333 M275.333 156.815 C 275.333 157.112,275.566 157.229,276.555 157.425 C 276.723 157.459,277.023 157.530,277.222 157.585 C 277.541 157.672,277.530 157.638,277.125 157.294 C 276.873 157.080,276.499 156.892,276.294 156.876 C 276.089 156.861,275.895 156.770,275.864 156.674 C 275.763 156.372,275.333 156.486,275.333 156.815 M289.375 159.018 C 288.985 159.210,288.667 159.433,288.667 159.512 C 288.667 159.591,288.566 159.618,288.443 159.571 C 288.321 159.523,288.124 159.601,288.006 159.742 C 287.705 160.105,288.363 160.097,288.921 159.732 C 289.169 159.569,289.556 159.490,289.900 159.530 C 290.382 159.586,290.512 159.524,290.744 159.131 C 291.102 158.526,290.474 158.474,289.375 159.018 " stroke="none" fill="#e38b74" fill-rule="evenodd"></path></g></svg>