<svg id="svg" version="1.1" xmlns="http://www.w3.org/2000/svg" xmlns:xlink="http://www.w3.org/1999/xlink" width="400" height="257.20486111111114" viewBox="0, 0, 400,257.20486111111114"><g id="svgg"><path id="path0" d="M214.891 166.340 C 214.510 166.416,213.894 166.632,213.522 166.822 C 213.151 167.012,212.730 167.167,212.588 167.167 C 212.285 167.167,211.728 167.460,211.232 167.882 C 210.914 168.152,210.704 168.166,209.065 168.026 C 208.006 167.936,207.133 167.934,206.968 168.020 C 206.813 168.101,206.647 168.103,206.599 168.025 C 206.357 167.634,198.888 167.385,198.167 167.745 C 197.938 167.859,197.492 168.001,197.178 168.062 C 196.863 168.122,196.470 168.293,196.304 168.443 C 196.139 168.593,195.628 168.751,195.168 168.796 C 194.709 168.840,194.333 168.941,194.333 169.021 C 194.333 169.101,194.118 169.167,193.854 169.167 C 192.967 169.167,192.370 169.365,192.216 169.710 C 192.025 170.139,190.326 170.725,190.109 170.437 C 190.017 170.314,189.995 170.336,190.046 170.500 C 190.205 171.015,189.867 171.558,189.572 171.263 C 189.188 170.878,188.381 170.921,188.250 171.333 C 188.163 171.607,187.998 171.667,187.332 171.667 C 186.885 171.667,186.470 171.747,186.410 171.845 C 186.349 171.943,186.199 171.984,186.077 171.937 C 185.931 171.881,185.836 172.006,185.802 172.297 C 185.771 172.564,185.594 172.820,185.361 172.935 C 185.147 173.041,184.888 173.212,184.786 173.314 C 184.684 173.416,184.432 173.500,184.227 173.500 C 184.021 173.500,183.810 173.569,183.758 173.654 C 183.706 173.738,183.444 173.856,183.176 173.915 C 182.909 173.973,182.600 174.129,182.491 174.261 C 182.382 174.392,182.119 174.500,181.906 174.500 C 181.694 174.500,181.479 174.566,181.428 174.648 C 181.267 174.910,180.159 175.035,179.901 174.820 C 179.418 174.419,178.064 174.749,177.485 175.409 C 177.068 175.884,176.845 176.000,176.356 176.000 C 175.937 176.000,175.606 176.130,175.297 176.417 C 175.050 176.646,174.736 176.833,174.599 176.833 C 174.462 176.833,174.280 176.958,174.195 177.110 C 174.064 177.344,173.852 177.370,172.778 177.279 C 172.011 177.214,171.477 177.237,171.415 177.336 C 171.359 177.426,171.135 177.500,170.917 177.500 C 170.698 177.500,170.469 177.582,170.407 177.682 C 170.340 177.791,170.071 177.821,169.733 177.758 C 169.424 177.700,169.039 177.720,168.877 177.803 C 168.285 178.107,167.000 178.182,167.000 177.913 C 167.000 177.482,166.332 177.645,165.582 178.260 C 164.873 178.841,164.846 178.848,164.353 178.594 C 163.787 178.301,163.234 178.255,163.089 178.490 C 163.036 178.577,162.638 178.699,162.204 178.763 C 161.771 178.827,161.238 178.945,161.020 179.027 C 160.801 179.109,160.172 179.213,159.621 179.259 C 159.070 179.305,158.550 179.386,158.465 179.438 C 158.380 179.491,157.852 179.566,157.292 179.605 C 156.732 179.644,156.170 179.761,156.044 179.866 C 155.918 179.971,155.217 180.091,154.486 180.133 C 153.336 180.200,153.115 180.263,152.846 180.605 C 152.675 180.822,152.457 181.000,152.362 181.000 C 152.266 181.000,151.977 181.086,151.719 181.190 C 151.461 181.295,151.002 181.364,150.700 181.343 C 150.397 181.323,149.966 181.427,149.741 181.574 C 149.517 181.721,149.333 181.764,149.333 181.671 C 149.333 181.577,149.215 181.500,149.069 181.500 C 148.924 181.500,148.836 181.591,148.873 181.702 C 148.958 181.957,148.220 182.581,147.667 182.723 C 147.061 182.879,146.693 183.169,146.962 183.278 C 147.078 183.325,147.287 183.582,147.424 183.848 C 147.562 184.115,147.777 184.333,147.901 184.333 C 148.024 184.333,148.213 184.438,148.319 184.566 C 148.530 184.820,149.294 184.972,151.042 185.107 C 151.660 185.155,152.167 185.263,152.167 185.347 C 152.167 185.431,152.317 185.500,152.500 185.500 C 152.683 185.500,152.833 185.577,152.833 185.671 C 152.833 186.040,153.856 186.215,156.231 186.251 C 158.398 186.285,158.733 186.326,158.876 186.582 C 159.023 186.845,159.232 186.862,161.009 186.756 C 162.876 186.645,162.995 186.657,163.277 186.986 C 163.510 187.258,163.774 187.335,164.495 187.341 C 165.002 187.345,165.717 187.456,166.083 187.588 C 166.450 187.720,166.919 187.829,167.125 187.831 C 167.331 187.832,167.650 187.983,167.833 188.167 C 168.017 188.350,168.317 188.500,168.500 188.500 C 168.685 188.500,168.833 188.611,168.833 188.750 C 168.833 188.925,169.009 189.000,169.417 189.000 C 169.738 189.000,170.281 189.150,170.623 189.333 C 170.965 189.517,171.371 189.667,171.526 189.667 C 172.012 189.667,172.333 189.859,172.333 190.151 C 172.333 190.840,173.007 191.016,173.667 190.500 C 173.896 190.321,174.243 190.172,174.438 190.170 C 174.633 190.168,174.887 190.053,175.003 189.914 C 175.118 189.774,175.459 189.544,175.760 189.401 C 176.076 189.251,176.422 188.899,176.578 188.570 C 176.782 188.141,176.954 188.000,177.273 188.000 C 177.558 188.000,177.727 187.890,177.785 187.667 C 177.850 187.418,178.012 187.333,178.426 187.333 C 178.731 187.333,179.027 187.258,179.083 187.167 C 179.140 187.075,179.334 187.000,179.515 187.000 C 179.696 187.000,179.887 186.887,179.940 186.750 C 179.999 186.596,180.252 186.500,180.601 186.500 C 180.938 186.500,181.170 186.416,181.174 186.292 C 181.178 186.177,181.515 185.746,181.923 185.333 C 182.330 184.921,182.665 184.527,182.665 184.458 C 182.666 184.390,182.892 184.333,183.167 184.333 C 183.442 184.333,183.667 184.272,183.667 184.198 C 183.667 183.770,184.386 183.333,185.090 183.333 C 185.718 183.333,185.833 183.282,185.833 183.006 C 185.833 182.624,186.297 182.333,186.906 182.333 C 187.154 182.333,187.333 182.239,187.333 182.108 C 187.333 181.667,192.227 181.482,192.394 181.917 C 192.466 182.106,192.773 182.167,193.661 182.167 C 194.592 182.167,194.833 182.218,194.833 182.417 C 194.833 182.624,195.157 182.667,196.750 182.667 C 197.917 182.667,198.667 182.601,198.667 182.500 C 198.667 182.408,198.774 182.333,198.905 182.333 C 199.037 182.333,199.192 182.183,199.250 182.000 C 199.442 181.395,203.371 181.870,204.180 182.597 C 204.325 182.727,204.568 182.833,204.721 182.833 C 204.945 182.833,205.000 182.999,205.000 183.667 C 205.000 184.444,205.028 184.500,205.417 184.500 C 205.676 184.500,205.833 184.594,205.833 184.750 C 205.833 184.887,205.920 185.000,206.025 185.000 C 206.131 185.000,206.487 185.296,206.817 185.657 C 207.212 186.090,207.587 186.332,207.917 186.365 C 208.289 186.404,208.430 186.513,208.470 186.792 C 208.507 187.056,208.636 187.167,208.904 187.167 C 209.113 187.167,209.486 187.354,209.733 187.582 C 209.979 187.810,210.352 188.040,210.561 188.093 C 210.770 188.145,211.068 188.404,211.224 188.667 C 211.379 188.931,211.671 189.198,211.871 189.262 C 212.270 189.388,212.667 189.731,212.667 189.948 C 212.667 190.024,212.817 190.180,213.000 190.295 C 213.183 190.409,213.333 190.652,213.333 190.835 C 213.333 191.078,213.445 191.167,213.750 191.167 C 214.058 191.167,214.167 191.255,214.167 191.505 C 214.167 191.691,214.285 191.889,214.429 191.945 C 214.574 192.000,214.760 192.223,214.842 192.439 C 214.929 192.667,215.128 192.833,215.316 192.833 C 215.495 192.833,215.866 193.058,216.141 193.333 C 216.416 193.608,216.704 193.833,216.781 193.833 C 216.993 193.833,217.833 194.655,217.833 194.863 C 217.833 195.150,218.374 195.489,218.842 195.495 C 219.308 195.501,219.667 195.774,219.667 196.125 C 219.667 197.019,221.853 197.575,222.163 196.760 C 222.256 196.514,222.440 196.362,222.626 196.376 C 222.993 196.404,223.080 196.934,222.739 197.065 C 222.607 197.115,222.500 197.090,222.500 197.009 C 222.500 196.928,222.590 196.831,222.700 196.794 C 222.832 196.751,222.811 196.694,222.640 196.628 C 222.464 196.561,222.390 196.618,222.410 196.806 C 222.475 197.401,222.710 197.685,223.097 197.634 C 223.310 197.606,223.469 197.658,223.451 197.750 C 223.432 197.842,223.248 197.895,223.042 197.869 C 222.739 197.830,222.667 197.902,222.667 198.244 C 222.667 198.509,222.760 198.667,222.917 198.667 C 223.054 198.667,223.167 198.600,223.167 198.518 C 223.167 198.352,224.559 198.390,225.132 198.572 C 225.409 198.660,225.500 198.622,225.500 198.418 C 225.500 198.269,225.436 198.187,225.357 198.235 C 225.279 198.284,225.250 198.139,225.293 197.914 C 225.378 197.470,226.113 197.169,227.117 197.168 C 227.624 197.167,227.888 197.247,229.109 197.773 C 229.397 197.898,229.810 198.002,230.025 198.005 C 230.241 198.008,230.561 198.120,230.737 198.253 C 230.963 198.424,231.481 198.493,232.487 198.486 C 234.042 198.475,234.500 198.577,234.500 198.934 C 234.500 199.076,234.677 199.167,234.956 199.167 C 235.339 199.167,236.513 199.640,237.500 200.194 C 237.637 200.271,237.914 200.405,238.115 200.492 C 238.316 200.579,238.571 200.823,238.682 201.034 C 238.976 201.590,239.573 202.107,240.066 202.231 C 240.332 202.298,240.533 202.492,240.596 202.743 C 240.665 203.016,240.855 203.182,241.182 203.253 C 241.449 203.312,241.667 203.410,241.668 203.472 C 241.671 203.700,242.589 204.000,243.283 204.000 C 243.817 204.000,244.000 203.935,244.000 203.744 C 244.000 203.543,244.069 203.525,244.322 203.661 C 244.500 203.756,244.968 203.836,245.364 203.839 C 246.197 203.845,246.568 204.076,246.719 204.681 C 246.838 205.161,247.664 205.500,248.718 205.500 C 249.046 205.500,249.365 205.584,249.429 205.686 C 249.507 205.812,249.915 205.836,250.701 205.758 C 251.780 205.652,251.865 205.667,251.949 205.989 C 251.998 206.178,252.135 206.333,252.252 206.333 C 252.369 206.333,252.508 206.446,252.560 206.583 C 252.613 206.721,252.800 206.833,252.976 206.833 C 253.151 206.833,253.510 206.945,253.773 207.082 C 254.035 207.219,254.386 207.332,254.551 207.332 C 255.196 207.335,256.333 207.716,256.333 207.930 C 256.333 208.099,256.613 208.146,257.475 208.120 C 258.128 208.100,258.717 208.166,258.850 208.273 C 258.979 208.376,259.492 208.547,259.991 208.652 C 262.828 209.251,270.396 212.778,271.757 214.137 C 272.274 214.653,273.929 215.489,278.750 217.670 C 280.942 218.662,281.740 218.831,283.702 218.719 C 285.311 218.627,285.560 218.648,285.695 218.890 C 285.780 219.042,286.029 219.167,286.248 219.167 C 286.468 219.167,286.693 219.242,286.750 219.333 C 286.807 219.425,287.381 219.500,288.025 219.500 C 289.058 219.500,289.208 219.540,289.285 219.833 C 289.333 220.017,289.507 220.167,289.672 220.167 C 289.837 220.167,290.000 220.250,290.034 220.352 C 290.075 220.474,291.343 220.588,293.756 220.686 C 295.769 220.768,298.151 220.909,299.048 221.001 C 299.946 221.092,301.127 221.167,301.673 221.167 C 302.224 221.167,302.667 221.241,302.667 221.333 C 302.667 221.425,303.016 221.500,303.442 221.500 C 304.410 221.500,308.633 222.272,309.083 222.531 C 309.616 222.838,313.597 223.833,315.417 224.114 C 316.333 224.255,317.188 224.455,317.315 224.559 C 317.604 224.792,318.690 225.094,320.399 225.413 C 321.602 225.638,322.497 225.938,326.167 227.344 C 326.854 227.607,327.942 227.912,328.583 228.022 C 329.225 228.131,329.900 228.349,330.083 228.505 C 330.267 228.661,331.467 229.031,332.750 229.328 C 334.033 229.625,335.683 230.007,336.417 230.177 C 341.749 231.413,353.833 232.421,353.833 231.631 C 353.833 231.334,354.501 231.167,355.688 231.167 C 356.384 231.167,356.500 231.120,356.500 230.839 C 356.500 230.385,356.989 230.168,358.031 230.159 C 358.518 230.155,359.217 230.044,359.583 229.912 C 359.950 229.780,360.447 229.671,360.688 229.669 C 360.929 229.668,361.220 229.553,361.335 229.415 C 361.449 229.277,361.835 229.117,362.192 229.060 C 362.549 229.003,362.881 228.891,362.930 228.811 C 362.979 228.732,363.521 228.663,364.135 228.660 C 365.436 228.651,367.034 228.316,367.128 228.031 C 367.174 227.895,367.757 227.833,369.014 227.833 C 370.116 227.833,370.833 227.768,370.833 227.667 C 370.833 227.575,371.021 227.500,371.250 227.500 C 371.479 227.500,371.667 227.440,371.667 227.367 C 371.667 227.112,374.132 226.786,375.171 226.904 C 376.107 227.010,376.219 226.985,376.713 226.570 C 377.224 226.140,377.300 226.126,378.689 226.216 C 380.019 226.302,380.141 226.284,380.218 225.988 C 380.329 225.565,382.493 225.506,382.833 225.917 C 382.947 226.054,383.135 226.167,383.250 226.167 C 383.365 226.167,383.553 226.054,383.667 225.917 C 383.817 225.736,384.213 225.667,385.095 225.667 C 386.039 225.667,386.351 225.606,386.465 225.401 C 386.588 225.182,386.814 225.154,387.765 225.238 C 388.399 225.294,389.479 225.382,390.167 225.434 C 390.854 225.486,391.517 225.612,391.639 225.713 C 391.762 225.815,392.302 225.950,392.841 226.013 C 393.379 226.077,393.933 226.243,394.073 226.382 C 394.410 226.720,395.642 226.925,395.883 226.684 C 396.140 226.426,398.471 226.446,398.730 226.708 C 398.843 226.823,398.985 227.048,399.046 227.208 C 399.111 227.380,399.329 227.500,399.578 227.500 L 400.000 227.500 400.000 203.417 C 400.000 184.272,399.957 179.329,399.792 179.314 C 399.677 179.303,399.522 179.305,399.446 179.318 C 399.370 179.331,399.352 179.271,399.405 179.185 C 399.459 179.099,399.408 178.987,399.293 178.936 C 399.151 178.873,399.164 178.848,399.333 178.858 C 399.886 178.891,400.000 178.816,400.000 178.422 C 400.000 178.125,399.931 178.037,399.750 178.106 C 399.613 178.159,399.500 178.119,399.500 178.018 C 399.500 177.916,399.594 177.852,399.708 177.875 C 399.851 177.903,399.928 177.639,399.951 177.042 C 399.983 176.212,399.719 175.844,399.429 176.314 C 399.294 176.531,398.422 176.448,398.109 176.188 C 397.926 176.036,397.641 175.999,397.239 176.074 C 396.844 176.148,396.551 176.113,396.375 175.968 C 396.141 175.777,396.122 175.799,396.213 176.153 C 396.311 176.535,395.664 177.609,395.459 177.403 C 395.416 177.360,395.286 177.440,395.170 177.579 C 395.054 177.719,394.846 177.833,394.707 177.833 C 394.122 177.833,393.166 178.239,393.075 178.525 C 393.015 178.716,392.820 178.833,392.563 178.833 C 391.961 178.833,390.667 179.183,390.667 179.345 C 390.667 179.846,389.416 180.667,388.653 180.667 C 387.960 180.667,387.805 180.734,387.449 181.189 C 386.937 181.843,385.544 182.076,385.014 181.596 C 384.672 181.286,382.298 181.374,381.872 181.712 C 381.603 181.925,381.000 181.415,381.000 180.974 C 381.000 180.781,380.880 180.667,380.677 180.667 C 380.499 180.667,380.307 180.592,380.250 180.500 C 380.193 180.408,379.860 180.333,379.509 180.333 C 379.158 180.333,378.657 180.221,378.394 180.084 C 378.131 179.947,377.713 179.835,377.463 179.834 C 377.214 179.834,376.735 179.679,376.399 179.490 C 376.046 179.292,375.568 179.168,375.269 179.197 C 374.853 179.237,374.760 179.190,374.799 178.957 C 374.826 178.797,374.770 178.667,374.674 178.667 C 374.578 178.667,374.500 178.742,374.500 178.833 C 374.500 178.925,374.294 179.005,374.042 179.012 C 373.790 179.018,373.433 179.082,373.250 179.153 C 373.021 179.243,372.856 179.200,372.722 179.017 C 372.446 178.639,369.781 178.699,368.643 179.108 C 367.977 179.347,367.757 179.366,367.495 179.202 C 367.317 179.091,367.026 179.000,366.849 179.000 C 366.673 179.000,366.494 178.906,366.453 178.792 C 366.412 178.677,366.315 178.644,366.236 178.717 C 366.157 178.791,366.203 178.920,366.338 179.003 C 366.552 179.135,366.547 179.215,366.303 179.617 C 366.023 180.080,364.167 180.356,364.167 179.935 C 364.167 179.715,361.209 179.924,360.919 180.165 C 360.714 180.335,360.566 180.280,360.079 179.852 C 359.754 179.567,359.413 179.333,359.321 179.333 C 359.229 179.333,358.940 179.176,358.680 178.984 C 358.245 178.662,358.118 178.648,357.072 178.811 C 356.255 178.938,355.629 178.936,354.843 178.802 C 353.861 178.635,353.680 178.650,353.064 178.949 L 352.377 179.282 351.832 178.724 C 351.160 178.037,350.852 178.026,350.167 178.667 C 349.280 179.495,348.287 179.309,347.823 178.226 C 347.577 177.651,347.427 177.500,347.103 177.500 C 346.878 177.500,346.575 177.454,346.430 177.399 C 346.225 177.320,346.167 177.412,346.167 177.816 C 346.167 178.212,346.093 178.333,345.851 178.333 C 345.678 178.333,345.488 178.458,345.430 178.610 C 345.311 178.919,344.907 178.593,344.526 177.882 C 344.304 177.467,341.516 177.141,341.105 177.482 C 340.780 177.752,339.377 177.910,339.127 177.705 C 338.878 177.499,337.171 177.459,336.923 177.653 C 336.511 177.975,335.360 177.972,335.068 177.649 C 334.719 177.265,333.859 177.234,333.594 177.597 C 333.441 177.806,332.962 177.878,331.325 177.941 C 329.041 178.028,328.629 178.064,326.917 178.321 C 326.243 178.422,325.672 178.603,325.565 178.748 C 325.341 179.053,324.225 179.087,324.120 178.792 C 324.077 178.670,323.984 178.645,323.898 178.731 C 323.812 178.817,323.837 178.910,323.958 178.953 C 324.205 179.041,324.242 179.833,324.000 179.833 C 323.908 179.833,323.833 179.721,323.833 179.583 C 323.833 179.441,323.683 179.333,323.484 179.333 C 323.270 179.333,323.100 179.198,323.044 178.984 C 322.970 178.700,322.863 178.652,322.476 178.730 C 322.213 178.782,322.000 178.752,322.000 178.662 C 322.000 178.573,321.587 178.500,321.083 178.500 C 320.309 178.500,320.167 178.453,320.167 178.198 C 320.167 177.289,316.389 176.860,315.425 177.660 C 315.248 177.807,315.110 177.801,314.846 177.636 C 314.407 177.362,313.981 177.599,313.818 178.209 C 313.754 178.448,313.618 178.742,313.515 178.863 C 313.412 178.984,313.158 179.346,312.950 179.667 C 312.593 180.217,311.833 180.565,311.833 180.178 C 311.833 180.080,311.721 180.000,311.583 180.000 C 311.444 180.000,311.333 180.148,311.333 180.333 C 311.333 180.556,311.222 180.667,311.000 180.667 C 310.817 180.667,310.667 180.736,310.667 180.821 C 310.667 180.906,310.427 181.095,310.134 181.242 C 309.544 181.536,308.950 181.106,308.729 180.225 C 308.648 179.901,308.488 179.830,307.628 179.732 C 306.841 179.643,306.605 179.551,306.541 179.305 C 306.480 179.073,306.324 179.001,305.938 179.024 C 305.234 179.067,304.700 178.874,304.503 178.505 C 304.291 178.109,302.854 177.888,302.327 178.170 C 302.042 178.323,301.873 178.321,301.579 178.165 C 301.371 178.053,300.903 177.990,300.540 178.025 C 300.147 178.062,299.801 178.003,299.683 177.877 C 299.409 177.583,298.825 177.615,298.589 177.936 C 298.419 178.169,298.343 178.175,298.029 177.980 C 297.732 177.794,297.605 177.792,297.323 177.968 C 297.134 178.086,296.833 178.136,296.655 178.080 C 296.477 178.023,295.905 178.065,295.383 178.174 C 294.862 178.282,293.869 178.370,293.176 178.369 C 292.483 178.368,291.818 178.447,291.698 178.546 C 291.575 178.647,290.996 178.700,290.365 178.669 C 288.249 178.565,287.532 178.608,287.140 178.861 C 286.561 179.237,285.932 179.349,285.395 179.174 C 285.132 179.088,283.867 178.981,282.583 178.936 C 281.300 178.891,279.972 178.803,279.632 178.740 C 279.293 178.677,278.880 178.683,278.716 178.752 C 278.551 178.822,278.180 178.864,277.892 178.845 C 277.603 178.826,277.324 178.881,277.271 178.966 C 277.154 179.155,276.333 179.021,276.333 178.814 C 276.333 178.733,276.221 178.667,276.083 178.667 C 275.921 178.667,275.833 178.830,275.833 179.133 C 275.833 179.605,274.840 179.748,274.572 179.315 C 274.522 179.233,274.346 179.167,274.182 179.167 C 274.019 179.167,273.647 179.048,273.357 178.904 C 273.029 178.740,272.649 178.681,272.348 178.747 C 272.071 178.808,271.818 178.777,271.756 178.676 C 271.696 178.579,271.478 178.500,271.271 178.500 C 271.065 178.500,270.675 178.268,270.406 177.985 C 269.988 177.545,269.827 177.483,269.298 177.552 C 268.888 177.606,268.615 177.555,268.486 177.400 C 268.244 177.108,267.929 177.109,267.083 177.405 C 266.503 177.608,266.381 177.606,266.140 177.390 C 265.953 177.222,265.548 177.150,264.890 177.168 C 263.391 177.208,263.336 177.195,263.167 176.750 C 262.945 176.167,262.358 176.225,262.126 176.853 C 261.851 177.602,259.669 177.308,259.664 176.521 C 259.659 175.618,258.312 175.360,257.482 176.103 C 257.296 176.269,256.706 176.358,255.574 176.393 C 254.510 176.425,253.913 176.511,253.871 176.638 C 253.742 177.024,252.799 176.854,252.348 176.364 C 251.481 175.422,250.348 174.807,249.564 174.855 C 249.168 174.880,248.792 174.847,248.728 174.783 C 248.664 174.719,248.441 174.667,248.232 174.667 C 248.024 174.667,247.807 174.592,247.750 174.500 C 247.693 174.408,247.422 174.333,247.147 174.333 C 246.872 174.333,246.333 174.263,245.949 174.178 C 245.564 174.093,244.779 173.932,244.203 173.821 C 243.628 173.710,243.117 173.555,243.069 173.476 C 243.020 173.398,242.652 173.333,242.250 173.333 C 241.848 173.333,241.473 173.258,241.417 173.167 C 241.360 173.075,241.023 173.000,240.667 173.000 C 240.311 173.000,239.973 172.925,239.917 172.833 C 239.860 172.742,239.593 172.667,239.323 172.667 C 239.054 172.667,238.833 172.592,238.833 172.500 C 238.833 172.296,237.629 172.277,237.408 172.477 C 236.746 173.078,234.167 172.932,234.167 172.294 C 234.167 172.078,234.033 172.000,233.662 172.000 C 233.236 172.000,233.143 171.923,233.058 171.500 C 232.890 170.658,231.500 170.822,231.500 171.684 C 231.500 171.950,231.465 172.167,231.421 172.167 C 231.305 172.167,228.642 170.990,227.609 170.482 C 226.919 170.143,225.917 170.063,225.750 170.333 C 225.622 170.541,224.761 170.551,224.373 170.350 C 223.615 169.959,222.658 169.658,221.707 169.512 C 221.133 169.424,220.575 169.297,220.467 169.229 C 220.358 169.162,219.853 169.024,219.343 168.923 C 218.519 168.758,218.386 168.672,218.136 168.145 C 217.982 167.820,217.663 167.427,217.428 167.273 C 217.193 167.118,217.000 166.884,217.000 166.752 C 217.000 166.225,216.232 166.075,214.891 166.340 M396.809 177.018 C 396.622 177.137,396.623 177.162,396.819 177.164 C 396.949 177.166,397.011 177.212,396.956 177.267 C 396.781 177.441,396.511 177.166,396.608 176.912 C 396.660 176.778,396.777 176.715,396.869 176.772 C 396.971 176.835,396.949 176.930,396.809 177.018 M397.746 177.374 C 397.818 177.306,397.776 177.415,397.653 177.617 C 397.398 178.036,397.351 178.024,397.251 177.508 C 397.196 177.218,397.228 177.177,397.397 177.317 C 397.516 177.416,397.673 177.442,397.746 177.374 M398.333 178.354 C 398.333 178.483,398.411 178.477,398.583 178.333 C 398.962 178.019,398.882 178.237,398.488 178.594 C 398.230 178.828,398.156 178.845,398.196 178.662 C 398.229 178.514,398.135 178.426,397.960 178.440 C 397.801 178.452,397.711 178.396,397.762 178.315 C 397.893 178.102,398.333 178.132,398.333 178.354 M223.391 196.590 C 223.329 196.751,223.375 196.829,223.514 196.798 C 223.635 196.772,223.738 196.827,223.742 196.921 C 223.747 197.014,223.930 197.277,224.150 197.504 C 224.369 197.731,224.496 197.823,224.431 197.708 C 224.270 197.423,224.580 197.444,224.821 197.735 C 224.970 197.915,224.969 197.999,224.816 198.094 C 224.687 198.174,224.659 198.148,224.737 198.021 C 224.825 197.879,224.711 197.850,224.326 197.918 C 223.907 197.992,223.813 197.961,223.885 197.772 C 223.936 197.639,223.833 197.400,223.655 197.240 C 223.469 197.071,223.333 197.029,223.333 197.141 C 223.333 197.247,223.249 197.333,223.146 197.333 C 223.009 197.333,223.008 197.274,223.145 197.110 C 223.247 196.987,223.286 196.842,223.232 196.787 C 223.178 196.733,223.183 196.609,223.243 196.511 C 223.407 196.245,223.504 196.297,223.391 196.590 " stroke="none" fill="#b46c7b" fill-rule="evenodd"></path><path id="path1" d="M396.608 176.912 C 396.511 177.166,396.781 177.441,396.956 177.267 C 397.011 177.212,396.949 177.166,396.819 177.164 C 396.623 177.162,396.622 177.137,396.809 177.018 C 396.949 176.930,396.971 176.835,396.869 176.772 C 396.777 176.715,396.660 176.778,396.608 176.912 M397.251 177.508 C 397.351 178.024,397.398 178.036,397.653 177.617 C 397.776 177.415,397.818 177.306,397.746 177.374 C 397.673 177.442,397.516 177.416,397.397 177.317 C 397.228 177.177,397.196 177.218,397.251 177.508 M397.762 178.315 C 397.711 178.396,397.801 178.452,397.960 178.440 C 398.135 178.426,398.229 178.514,398.196 178.662 C 398.156 178.845,398.230 178.828,398.488 178.594 C 398.882 178.237,398.962 178.019,398.583 178.333 C 398.411 178.477,398.333 178.483,398.333 178.354 C 398.333 178.132,397.893 178.102,397.762 178.315 M399.293 178.955 C 399.408 178.995,399.469 179.081,399.429 179.146 C 399.389 179.211,399.519 179.276,399.718 179.291 C 399.974 179.311,400.014 179.278,399.854 179.179 C 399.665 179.063,399.666 179.027,399.856 178.961 C 399.981 178.917,399.858 178.882,399.583 178.882 C 399.308 178.882,399.178 178.915,399.293 178.955 M127.000 181.657 C 126.862 181.751,126.478 181.829,126.145 181.831 C 125.813 181.832,125.447 181.946,125.333 182.083 C 125.219 182.221,124.959 182.333,124.754 182.333 C 124.550 182.333,124.037 182.517,123.613 182.743 C 123.175 182.976,122.801 183.083,122.745 182.993 C 122.599 182.756,121.643 182.811,121.167 183.083 C 120.938 183.214,120.547 183.324,120.299 183.327 C 120.051 183.331,119.572 183.521,119.234 183.750 C 118.634 184.157,117.393 184.306,115.417 184.208 C 114.842 184.180,112.977 184.789,112.794 185.065 C 112.709 185.194,112.671 185.187,112.669 185.042 C 112.664 184.644,112.207 184.836,111.964 185.338 C 111.693 185.898,110.655 186.745,110.510 186.525 C 110.168 186.008,108.125 186.177,107.866 186.744 C 107.758 186.981,107.434 187.188,106.966 187.319 C 106.501 187.450,106.178 187.656,106.076 187.887 C 105.944 188.188,105.741 188.264,104.892 188.333 C 104.247 188.386,103.749 188.525,103.546 188.708 C 103.369 188.869,103.067 189.000,102.876 189.000 C 102.684 189.000,102.484 189.094,102.431 189.208 C 102.353 189.375,102.314 189.375,102.236 189.208 C 101.998 188.699,100.667 189.412,100.667 190.049 C 100.667 190.239,100.422 190.340,99.758 190.423 C 98.594 190.568,97.667 190.091,97.667 189.346 C 97.667 188.889,97.165 188.500,96.577 188.500 C 96.444 188.500,96.242 188.350,96.128 188.167 C 96.013 187.983,95.818 187.833,95.695 187.833 C 95.571 187.833,95.279 187.683,95.045 187.500 C 94.812 187.317,94.486 187.167,94.321 187.167 C 94.155 187.167,93.973 187.092,93.917 187.000 C 93.635 186.545,91.630 187.081,90.790 187.835 C 90.200 188.365,89.667 188.612,89.667 188.356 C 89.667 188.293,89.367 188.270,89.000 188.305 C 88.538 188.349,88.333 188.303,88.333 188.156 C 88.333 188.040,88.284 187.994,88.224 188.054 C 88.163 188.114,88.013 188.080,87.890 187.978 C 87.728 187.843,87.606 187.842,87.446 187.976 C 87.318 188.082,87.161 188.097,87.071 188.012 C 86.859 187.810,84.846 187.678,84.735 187.858 C 84.685 187.938,84.443 188.001,84.197 187.998 C 83.951 187.995,83.563 188.025,83.333 188.066 C 83.104 188.106,82.753 188.145,82.554 188.153 C 82.354 188.160,82.091 188.260,81.970 188.375 C 81.849 188.490,81.600 188.579,81.417 188.574 C 80.953 188.561,80.593 188.970,80.378 189.752 C 79.467 193.076,78.124 195.172,75.583 197.239 C 73.946 198.571,71.867 199.380,68.458 200.013 C 67.822 200.131,67.500 200.270,67.500 200.428 C 67.500 200.559,67.412 200.667,67.306 200.667 C 67.199 200.667,67.161 200.716,67.221 200.777 C 67.328 200.883,66.854 201.226,66.328 201.424 C 66.187 201.477,65.980 201.728,65.868 201.983 C 65.755 202.237,65.476 202.546,65.248 202.668 C 65.020 202.790,64.833 202.984,64.833 203.100 C 64.833 203.216,64.683 203.359,64.500 203.417 C 64.316 203.475,64.089 203.667,63.994 203.845 C 63.899 204.022,63.683 204.167,63.513 204.167 C 63.326 204.167,63.099 204.390,62.936 204.732 C 62.789 205.043,62.555 205.341,62.416 205.394 C 62.277 205.447,62.080 205.674,61.978 205.898 C 61.876 206.122,61.671 206.347,61.521 206.398 C 61.085 206.547,60.607 206.892,60.341 207.250 C 60.205 207.433,59.930 207.748,59.731 207.948 C 59.532 208.149,59.417 208.371,59.476 208.443 C 59.535 208.514,59.433 208.465,59.250 208.333 C 59.067 208.202,58.967 208.155,59.029 208.229 C 59.144 208.367,58.284 209.272,57.727 209.599 C 57.556 209.699,57.321 209.976,57.204 210.214 C 57.087 210.452,56.847 210.693,56.671 210.749 C 56.495 210.805,56.307 210.988,56.253 211.157 C 56.199 211.326,56.027 211.513,55.869 211.573 C 55.181 211.834,54.835 212.097,54.912 212.299 C 54.959 212.419,54.934 212.479,54.858 212.432 C 54.782 212.385,54.556 212.568,54.355 212.840 C 54.154 213.111,53.885 213.333,53.756 213.333 C 53.628 213.333,53.475 213.483,53.417 213.667 C 53.358 213.850,53.206 214.000,53.078 214.000 C 52.950 214.000,52.765 214.150,52.667 214.333 C 52.569 214.517,52.397 214.667,52.286 214.668 C 52.174 214.668,51.904 214.932,51.685 215.254 C 51.466 215.575,51.110 215.883,50.893 215.937 C 50.677 215.992,50.500 216.100,50.500 216.178 C 50.500 216.348,49.640 217.167,49.461 217.167 C 49.226 217.167,48.511 217.883,48.601 218.028 C 48.650 218.108,48.441 218.281,48.137 218.413 C 47.832 218.545,47.651 218.657,47.734 218.660 C 47.980 218.671,46.948 219.501,46.565 219.600 C 46.371 219.650,46.063 219.967,45.881 220.304 C 45.699 220.641,45.464 220.898,45.358 220.875 C 45.253 220.852,45.166 220.965,45.164 221.125 C 45.162 221.356,45.131 221.369,45.016 221.186 C 44.899 221.002,44.850 221.019,44.770 221.271 C 44.677 221.564,44.303 221.836,43.646 222.090 C 43.497 222.148,43.272 222.395,43.146 222.639 C 42.883 223.149,42.479 223.506,42.294 223.392 C 42.224 223.349,42.166 223.449,42.164 223.615 C 42.162 223.852,42.130 223.867,42.016 223.686 C 41.899 223.502,41.850 223.519,41.770 223.771 C 41.715 223.944,41.500 224.163,41.293 224.258 C 41.086 224.352,40.935 224.520,40.958 224.631 C 40.981 224.742,40.852 224.833,40.671 224.833 C 40.489 224.833,40.218 225.021,40.068 225.250 C 39.918 225.479,39.691 225.667,39.564 225.667 C 39.437 225.667,39.333 225.746,39.333 225.843 C 39.333 225.940,39.267 225.979,39.186 225.928 C 39.104 225.878,38.999 225.986,38.951 226.169 C 38.900 226.366,38.724 226.500,38.517 226.500 C 38.326 226.500,38.076 226.650,37.961 226.833 C 37.847 227.017,37.675 227.167,37.579 227.167 C 37.483 227.167,37.278 227.382,37.123 227.645 C 36.951 227.936,36.648 228.162,36.350 228.222 C 36.051 228.281,35.817 228.457,35.748 228.672 C 35.687 228.866,35.544 228.989,35.431 228.945 C 35.318 228.902,35.137 229.009,35.028 229.183 C 34.920 229.357,34.735 229.500,34.618 229.500 C 34.501 229.500,34.272 229.725,34.110 230.000 C 33.947 230.275,33.706 230.500,33.574 230.500 C 33.442 230.500,33.333 230.579,33.333 230.677 C 33.333 230.774,33.267 230.812,33.186 230.762 C 33.104 230.711,32.999 230.820,32.951 231.002 C 32.902 231.191,32.724 231.333,32.536 231.333 C 32.355 231.333,32.114 231.446,32.000 231.583 C 31.886 231.721,31.705 231.833,31.599 231.833 C 31.492 231.833,31.272 232.058,31.110 232.333 C 30.947 232.608,30.706 232.833,30.574 232.833 C 30.442 232.833,30.333 232.941,30.333 233.073 C 30.333 233.206,30.256 233.361,30.163 233.419 C 30.069 233.477,30.002 233.463,30.016 233.387 C 30.084 232.992,29.970 232.965,29.784 233.333 C 29.668 233.563,29.486 233.750,29.378 233.750 C 29.271 233.750,29.086 233.855,28.967 233.983 C 28.788 234.175,28.791 234.192,28.984 234.082 C 29.141 233.993,29.179 234.012,29.099 234.141 C 29.034 234.247,28.876 234.333,28.748 234.333 C 28.620 234.333,28.328 234.521,28.098 234.750 C 27.869 234.979,27.566 235.167,27.424 235.167 C 27.283 235.167,27.167 235.246,27.167 235.343 C 27.167 235.440,27.092 235.473,27.000 235.417 C 26.908 235.360,26.833 235.424,26.833 235.559 C 26.833 235.693,26.485 235.972,26.060 236.178 C 25.634 236.384,25.082 236.766,24.833 237.026 C 24.584 237.287,24.291 237.500,24.180 237.500 C 24.070 237.500,24.034 237.587,24.101 237.695 C 24.182 237.826,24.130 237.855,23.944 237.784 C 23.791 237.725,23.667 237.752,23.667 237.843 C 23.667 237.934,23.477 238.080,23.246 238.168 C 23.014 238.256,22.781 238.442,22.728 238.581 C 22.675 238.720,22.545 238.836,22.441 238.840 C 22.336 238.844,21.994 239.066,21.681 239.333 C 21.368 239.601,21.050 239.781,20.973 239.733 C 20.896 239.686,20.832 239.783,20.831 239.948 C 20.829 240.204,20.804 240.212,20.667 240.000 C 20.530 239.788,20.505 239.795,20.503 240.050 C 20.501 240.233,20.304 240.419,20.000 240.525 C 19.725 240.621,19.500 240.767,19.500 240.850 C 19.500 240.932,19.387 241.000,19.250 241.000 C 19.112 241.000,19.000 241.075,19.000 241.167 C 19.000 241.258,18.887 241.333,18.750 241.333 C 18.612 241.333,18.500 241.407,18.500 241.497 C 18.500 241.587,18.313 241.707,18.084 241.765 C 17.849 241.824,17.717 241.946,17.778 242.046 C 17.846 242.155,17.787 242.184,17.624 242.122 C 17.473 242.064,17.322 242.123,17.269 242.261 C 17.217 242.396,16.957 242.500,16.672 242.500 C 16.360 242.500,16.167 242.586,16.167 242.724 C 16.167 242.847,15.867 243.037,15.500 243.147 C 15.133 243.257,14.833 243.419,14.833 243.507 C 14.833 243.595,14.724 243.667,14.590 243.667 C 14.456 243.667,14.199 243.825,14.019 244.018 C 13.839 244.211,13.609 244.317,13.507 244.254 C 13.405 244.191,12.968 244.365,12.536 244.641 C 12.104 244.917,11.544 245.194,11.293 245.256 C 11.030 245.321,10.882 245.444,10.945 245.546 C 11.013 245.656,10.952 245.684,10.786 245.620 C 10.605 245.551,10.481 245.631,10.407 245.864 C 10.329 246.109,10.259 246.150,10.169 246.004 C 10.077 245.855,10.010 245.850,9.926 245.985 C 9.862 246.088,9.745 246.132,9.665 246.083 C 9.586 246.033,9.460 246.095,9.385 246.219 C 9.311 246.343,8.856 246.585,8.375 246.755 C 7.894 246.926,7.500 247.130,7.500 247.209 C 7.500 247.288,7.433 247.312,7.352 247.262 C 7.271 247.211,7.118 247.274,7.013 247.401 C 6.904 247.533,6.669 247.592,6.468 247.540 C 6.228 247.477,6.153 247.509,6.233 247.639 C 6.309 247.762,6.260 247.795,6.092 247.730 C 5.950 247.676,5.833 247.717,5.833 247.821 C 5.833 248.009,4.630 248.601,4.049 248.699 C 3.884 248.727,3.648 248.846,3.524 248.964 C 3.400 249.082,3.164 249.135,3.000 249.083 C 2.836 249.031,2.599 249.092,2.473 249.217 C 2.348 249.343,1.740 249.687,1.122 249.981 L 0.000 250.517 0.000 253.870 L 0.000 257.222 46.278 257.111 C 71.730 257.050,161.730 257.000,246.278 257.000 L 400.000 257.000 400.000 242.250 L 400.000 227.500 399.578 227.500 C 399.329 227.500,399.111 227.380,399.046 227.208 C 398.985 227.048,398.843 226.823,398.730 226.708 C 398.471 226.446,396.140 226.426,395.883 226.684 C 395.642 226.925,394.410 226.720,394.073 226.382 C 393.933 226.243,393.379 226.077,392.841 226.013 C 392.302 225.950,391.762 225.815,391.639 225.713 C 391.517 225.612,390.854 225.486,390.167 225.434 C 389.479 225.382,388.399 225.294,387.765 225.238 C 386.814 225.154,386.588 225.182,386.465 225.401 C 386.351 225.606,386.039 225.667,385.095 225.667 C 384.213 225.667,383.817 225.736,383.667 225.917 C 383.553 226.054,383.365 226.167,383.250 226.167 C 383.135 226.167,382.947 226.054,382.833 225.917 C 382.493 225.506,380.329 225.565,380.218 225.988 C 380.141 226.284,380.019 226.302,378.689 226.216 C 377.300 226.126,377.224 226.140,376.713 226.570 C 376.219 226.985,376.107 227.010,375.171 226.904 C 374.132 226.786,371.667 227.112,371.667 227.367 C 371.667 227.440,371.479 227.500,371.250 227.500 C 371.021 227.500,370.833 227.575,370.833 227.667 C 370.833 227.768,370.116 227.833,369.014 227.833 C 367.757 227.833,367.174 227.895,367.128 228.031 C 367.034 228.316,365.436 228.651,364.135 228.660 C 363.521 228.663,362.979 228.732,362.930 228.811 C 362.881 228.891,362.549 229.003,362.192 229.060 C 361.835 229.117,361.449 229.277,361.335 229.415 C 361.220 229.553,360.929 229.668,360.688 229.669 C 360.447 229.671,359.950 229.780,359.583 229.912 C 359.217 230.044,358.518 230.155,358.031 230.159 C 356.989 230.168,356.500 230.385,356.500 230.839 C 356.500 231.120,356.384 231.167,355.688 231.167 C 354.501 231.167,353.833 231.334,353.833 231.631 C 353.833 232.421,341.749 231.413,336.417 230.177 C 335.683 230.007,334.033 229.625,332.750 229.328 C 331.467 229.031,330.267 228.661,330.083 228.505 C 329.900 228.349,329.225 228.131,328.583 228.022 C 327.942 227.912,326.854 227.607,326.167 227.344 C 322.497 225.938,321.602 225.638,320.399 225.413 C 318.690 225.094,317.604 224.792,317.315 224.559 C 317.188 224.455,316.333 224.255,315.417 224.114 C 313.597 223.833,309.616 222.838,309.083 222.531 C 308.633 222.272,304.410 221.500,303.442 221.500 C 303.016 221.500,302.667 221.425,302.667 221.333 C 302.667 221.241,302.224 221.167,301.673 221.167 C 301.127 221.167,299.946 221.092,299.048 221.001 C 298.151 220.909,295.769 220.768,293.756 220.686 C 291.343 220.588,290.075 220.474,290.034 220.352 C 290.000 220.250,289.837 220.167,289.672 220.167 C 289.507 220.167,289.333 220.017,289.285 219.833 C 289.208 219.540,289.058 219.500,288.025 219.500 C 287.381 219.500,286.807 219.425,286.750 219.333 C 286.693 219.242,286.468 219.167,286.248 219.167 C 286.029 219.167,285.780 219.042,285.695 218.890 C 285.560 218.648,285.311 218.627,283.702 218.719 C 281.740 218.831,280.942 218.662,278.750 217.670 C 273.929 215.489,272.274 214.653,271.757 214.137 C 270.396 212.778,262.828 209.251,259.991 208.652 C 259.492 208.547,258.979 208.376,258.850 208.273 C 258.717 208.166,258.128 208.100,257.475 208.120 C 256.613 208.146,256.333 208.099,256.333 207.930 C 256.333 207.716,255.196 207.335,254.551 207.332 C 254.386 207.332,254.035 207.219,253.773 207.082 C 253.510 206.945,253.151 206.833,252.976 206.833 C 252.800 206.833,252.613 206.721,252.560 206.583 C 252.508 206.446,252.369 206.333,252.252 206.333 C 252.135 206.333,251.998 206.178,251.949 205.989 C 251.865 205.667,251.780 205.652,250.701 205.758 C 249.915 205.836,249.507 205.812,249.429 205.686 C 249.365 205.584,249.046 205.500,248.718 205.500 C 247.664 205.500,246.838 205.161,246.719 204.681 C 246.568 204.076,246.197 203.845,245.364 203.839 C 244.968 203.836,244.500 203.756,244.322 203.661 C 244.069 203.525,244.000 203.543,244.000 203.744 C 244.000 203.935,243.817 204.000,243.283 204.000 C 242.589 204.000,241.671 203.700,241.668 203.472 C 241.667 203.410,241.449 203.312,241.182 203.253 C 240.855 203.182,240.665 203.016,240.596 202.743 C 240.533 202.492,240.332 202.298,240.066 202.231 C 239.573 202.107,238.976 201.590,238.682 201.034 C 238.571 200.823,238.316 200.579,238.115 200.492 C 237.914 200.405,237.637 200.271,237.500 200.194 C 236.513 199.640,235.339 199.167,234.956 199.167 C 234.677 199.167,234.500 199.076,234.500 198.934 C 234.500 198.577,234.042 198.475,232.487 198.486 C 231.481 198.493,230.963 198.424,230.737 198.253 C 230.561 198.120,230.241 198.008,230.025 198.005 C 229.810 198.002,229.397 197.898,229.109 197.773 C 227.888 197.247,227.624 197.167,227.117 197.168 C 226.113 197.169,225.378 197.470,225.293 197.914 C 225.250 198.139,225.279 198.284,225.357 198.235 C 225.436 198.187,225.500 198.269,225.500 198.418 C 225.500 198.622,225.409 198.660,225.132 198.572 C 224.559 198.390,223.167 198.352,223.167 198.518 C 223.167 198.600,223.054 198.667,222.917 198.667 C 222.760 198.667,222.667 198.509,222.667 198.244 C 222.667 197.902,222.739 197.830,223.042 197.869 C 223.248 197.895,223.432 197.842,223.451 197.750 C 223.469 197.658,223.310 197.606,223.097 197.634 C 222.710 197.685,222.475 197.401,222.410 196.806 C 222.390 196.618,222.464 196.561,222.640 196.628 C 222.811 196.694,222.832 196.751,222.700 196.794 C 222.590 196.831,222.500 196.928,222.500 197.009 C 222.500 197.090,222.607 197.115,222.739 197.065 C 223.080 196.934,222.993 196.404,222.626 196.376 C 222.440 196.362,222.256 196.514,222.163 196.760 C 221.853 197.575,219.667 197.019,219.667 196.125 C 219.667 195.774,219.308 195.501,218.842 195.495 C 218.374 195.489,217.833 195.150,217.833 194.863 C 217.833 194.655,216.993 193.833,216.781 193.833 C 216.704 193.833,216.416 193.608,216.141 193.333 C 215.866 193.058,215.495 192.833,215.316 192.833 C 215.128 192.833,214.929 192.667,214.842 192.439 C 214.760 192.223,214.574 192.000,214.429 191.945 C 214.285 191.889,214.167 191.691,214.167 191.505 C 214.167 191.255,214.058 191.167,213.750 191.167 C 213.445 191.167,213.333 191.078,213.333 190.835 C 213.333 190.652,213.183 190.409,213.000 190.295 C 212.817 190.180,212.667 190.024,212.667 189.948 C 212.667 189.731,212.270 189.388,211.871 189.262 C 211.671 189.198,211.379 188.931,211.224 188.667 C 211.068 188.404,210.770 188.145,210.561 188.093 C 210.352 188.040,209.979 187.810,209.733 187.582 C 209.486 187.354,209.113 187.167,208.904 187.167 C 208.636 187.167,208.507 187.056,208.470 186.792 C 208.430 186.513,208.289 186.404,207.917 186.365 C 207.587 186.332,207.212 186.090,206.817 185.657 C 206.487 185.296,206.131 185.000,206.025 185.000 C 205.920 185.000,205.833 184.887,205.833 184.750 C 205.833 184.594,205.676 184.500,205.417 184.500 C 205.028 184.500,205.000 184.444,205.000 183.667 C 205.000 182.999,204.945 182.833,204.721 182.833 C 204.568 182.833,204.325 182.727,204.180 182.597 C 203.371 181.870,199.442 181.395,199.250 182.000 C 199.192 182.183,199.037 182.333,198.905 182.333 C 198.774 182.333,198.667 182.408,198.667 182.500 C 198.667 182.601,197.917 182.667,196.750 182.667 C 195.157 182.667,194.833 182.624,194.833 182.417 C 194.833 182.218,194.592 182.167,193.661 182.167 C 192.773 182.167,192.466 182.106,192.394 181.917 C 192.227 181.482,187.333 181.667,187.333 182.108 C 187.333 182.239,187.154 182.333,186.906 182.333 C 186.297 182.333,185.833 182.624,185.833 183.006 C 185.833 183.282,185.718 183.333,185.090 183.333 C 184.386 183.333,183.667 183.770,183.667 184.198 C 183.667 184.272,183.442 184.333,183.167 184.333 C 182.892 184.333,182.666 184.390,182.665 184.458 C 182.665 184.527,182.330 184.921,181.923 185.333 C 181.515 185.746,181.178 186.177,181.174 186.292 C 181.170 186.416,180.938 186.500,180.601 186.500 C 180.252 186.500,179.999 186.596,179.940 186.750 C 179.887 186.887,179.696 187.000,179.515 187.000 C 179.334 187.000,179.140 187.075,179.083 187.167 C 179.027 187.258,178.731 187.333,178.426 187.333 C 178.012 187.333,177.850 187.418,177.785 187.667 C 177.727 187.890,177.558 188.000,177.273 188.000 C 176.954 188.000,176.782 188.141,176.578 188.570 C 176.422 188.899,176.076 189.251,175.760 189.401 C 175.459 189.544,175.118 189.774,175.003 189.914 C 174.887 190.053,174.633 190.168,174.438 190.170 C 174.243 190.172,173.896 190.321,173.667 190.500 C 173.007 191.016,172.333 190.840,172.333 190.151 C 172.333 189.859,172.012 189.667,171.526 189.667 C 171.371 189.667,170.965 189.517,170.623 189.333 C 170.281 189.150,169.738 189.000,169.417 189.000 C 169.009 189.000,168.833 188.925,168.833 188.750 C 168.833 188.611,168.685 188.500,168.500 188.500 C 168.317 188.500,168.017 188.350,167.833 188.167 C 167.650 187.983,167.331 187.832,167.125 187.831 C 166.919 187.829,166.450 187.720,166.083 187.588 C 165.717 187.456,165.002 187.345,164.495 187.341 C 163.774 187.335,163.510 187.258,163.277 186.986 C 162.995 186.657,162.876 186.645,161.009 186.756 C 159.232 186.862,159.023 186.845,158.876 186.582 C 158.733 186.326,158.398 186.285,156.231 186.251 C 153.856 186.215,152.833 186.040,152.833 185.671 C 152.833 185.577,152.683 185.500,152.500 185.500 C 152.317 185.500,152.167 185.431,152.167 185.347 C 152.167 185.263,151.660 185.155,151.042 185.107 C 149.294 184.972,148.530 184.820,148.319 184.566 C 148.213 184.438,148.025 184.333,147.902 184.333 C 147.779 184.333,147.591 184.165,147.483 183.958 C 146.979 182.989,146.513 182.824,145.750 183.342 C 144.957 183.880,144.249 184.136,143.795 184.049 C 143.565 184.005,143.142 184.090,142.856 184.238 C 141.895 184.735,138.569 184.350,138.046 183.682 C 137.759 183.315,137.502 183.167,137.155 183.167 C 136.835 183.167,136.667 183.082,136.667 182.920 C 136.667 182.557,135.879 182.409,135.535 182.708 C 135.090 183.094,134.333 183.228,134.333 182.920 C 134.333 182.778,134.187 182.667,134.001 182.667 C 133.819 182.667,133.576 182.517,133.461 182.333 C 133.314 182.098,133.073 182.000,132.636 182.000 C 132.297 182.000,131.973 181.924,131.916 181.832 C 131.858 181.739,131.314 181.682,130.698 181.705 C 130.085 181.727,129.058 181.687,128.417 181.615 C 127.673 181.532,127.159 181.547,127.000 181.657 M223.243 196.511 C 223.183 196.609,223.178 196.733,223.232 196.787 C 223.286 196.842,223.247 196.987,223.145 197.110 C 223.008 197.274,223.009 197.333,223.146 197.333 C 223.249 197.333,223.333 197.247,223.333 197.141 C 223.333 197.029,223.469 197.071,223.655 197.240 C 223.833 197.400,223.936 197.639,223.885 197.772 C 223.813 197.961,223.907 197.992,224.326 197.918 C 224.711 197.850,224.825 197.879,224.737 198.021 C 224.659 198.148,224.687 198.174,224.816 198.094 C 224.969 197.999,224.970 197.915,224.821 197.735 C 224.580 197.444,224.270 197.423,224.431 197.708 C 224.496 197.823,224.369 197.731,224.150 197.504 C 223.930 197.277,223.747 197.014,223.742 196.921 C 223.738 196.827,223.635 196.772,223.514 196.798 C 223.375 196.829,223.329 196.751,223.391 196.590 C 223.504 196.297,223.407 196.245,223.243 196.511 " stroke="none" fill="#8c546c" fill-rule="evenodd"></path></g></svg>